<svg width="128" height="128" viewBox="0 0 128 128" fill="none" xmlns="http://www.w3.org/2000/svg">
<rect width="128" height="128" rx="64" fill="#B31B1B"/>
<path d="M107.304 72C111.477 72 114.967 68.6057 113.757 64.6809C113.522 63.9205 113.251 63.1703 112.943 62.4329C111.677 59.3998 109.822 56.6438 107.483 54.3223C105.144 52.0009 102.367 50.1594 99.3114 48.903C96.2555 47.6466 92.9801 47 89.6724 47C86.3647 47 83.0893 47.6466 80.0334 48.903C76.9775 50.1594 74.2008 52.0009 71.8618 54.3223C69.5229 56.6438 67.6676 59.3998 66.4018 62.4329C66.0941 63.1703 65.8227 63.9205 65.5881 64.6809C64.3774 68.6057 67.8676 72 72.0409 72H75.6031C77.809 72 79.5271 70.1788 80.3641 68.1732C80.8705 66.9599 81.6126 65.8575 82.5482 64.9289C83.4838 64.0003 84.5944 63.2638 85.8168 62.7612C87.0392 62.2587 88.3493 62 89.6724 62C90.9955 62 92.3056 62.2587 93.528 62.7612C94.7504 63.2638 95.8611 64.0003 96.7966 64.9289C97.7322 65.8575 98.4744 66.9599 98.9807 68.1732C99.8177 70.1788 101.536 72 103.742 72H107.304Z" fill="#F4F4F4"/>
<path d="M54.9591 72C59.1324 72 62.6226 68.6057 61.4119 64.6809C61.1773 63.9205 60.9059 63.1703 60.5982 62.4329C59.3324 59.3998 57.4771 56.6438 55.1382 54.3223C52.7993 52.0009 50.0225 50.1594 46.9666 48.903C43.9107 47.6466 40.6353 47 37.3276 47C34.0199 47 30.7445 47.6466 27.6886 48.903C24.6326 50.1594 21.8559 52.0009 19.517 54.3223C17.1781 56.6438 15.3228 59.3998 14.057 62.4329C13.7492 63.1703 13.4778 63.9205 13.2432 64.6809C12.0325 68.6057 15.5227 72 19.696 72H23.2583C25.4642 72 27.1823 70.1788 28.0193 68.1732C28.5257 66.9599 29.2678 65.8575 30.2034 64.9289C31.1389 64.0003 32.2496 63.2638 33.472 62.7612C34.6943 62.2587 36.0045 62 37.3276 62C38.6507 62 39.9608 62.2587 41.1832 62.7612C42.4056 63.2638 43.5162 64.0003 44.4518 64.9289C45.3874 65.8575 46.1295 66.9599 46.6358 68.1732C47.4728 70.1788 49.191 72 51.3968 72H54.9591Z" fill="#F4F4F4"/>
</svg>
