<svg width="624" height="625" viewBox="0 0 624 625" fill="none" xmlns="http://www.w3.org/2000/svg">
<rect y="0.80542" width="623.636" height="623.636" rx="311.818" fill="#FF323F"/>
<path d="M279.331 147.726C322.602 147.726 349.694 164.493 364.809 178.537C379.543 192.229 388.646 211.795 390.597 216.269C397.168 218.182 402.875 222.437 407.123 228.712C417.567 244.137 421.332 260.281 411.083 287.623C442.521 310.401 452.676 333.246 454.248 361.513C454.326 362.882 453.768 364.207 452.737 365.109C451.706 366.011 448.061 367.057 446.83 366.918C447.321 373.069 447.637 387.326 442.224 402.197C441.78 404.79 439.636 415.7 433.288 428.372C423.78 447.343 409.267 461.22 391.315 468.512C389.744 469.152 386.534 459.962 385.709 458.12C377.22 464.671 359.397 478.242 332.974 478.242L332.952 478.254C312.866 478.254 292.908 464.293 283.963 457.14C283.21 458.169 287.953 465.512 286.643 465.617C285.493 465.706 254.624 457.478 224.847 423.162C223.844 424.537 229.183 434.957 227.477 434.629C227.092 434.556 217.958 432.725 208.996 424.075C203.406 418.681 197.838 403.162 194.506 388.939C194.115 390.381 192.248 398.163 190.772 398.63C188.953 399.203 169.043 372.16 188.792 328.789C180.759 322.374 174.383 312.857 171.316 301.393C165.597 280.016 173.229 258.774 188.673 249.497C190.041 193.961 237.461 174.362 252.763 174.362C251.426 173.115 241.366 169.931 242.525 169.497C253.354 165.433 271.345 159.333 280.34 159.232C276.004 156.883 270.804 155.024 264.116 151.684C264.896 151.122 271.177 147.726 279.331 147.726ZM188.592 315.175C188.772 315.4 188.954 315.623 189.137 315.843C188.862 315.513 188.591 315.177 188.324 314.835L188.592 315.175ZM185.116 310.088C185.266 310.346 185.419 310.603 185.574 310.857L185.343 310.474C185.191 310.218 185.04 309.959 184.892 309.698L185.116 310.088ZM182.846 305.624C182.908 305.765 182.971 305.906 183.034 306.046L182.846 305.624C182.784 305.483 182.722 305.341 182.662 305.199L182.846 305.624ZM181.964 303.47C182.13 303.908 182.303 304.342 182.481 304.771L182.305 304.34C182.189 304.052 182.075 303.762 181.964 303.47V303.47ZM181.638 302.588C181.691 302.736 181.745 302.883 181.799 303.03L181.639 302.588C181.586 302.44 181.533 302.291 181.482 302.142L181.638 302.588ZM181.037 300.789C181.085 300.941 181.133 301.092 181.181 301.243L181.038 300.789C180.99 300.637 180.944 300.485 180.898 300.333L181.037 300.789ZM180.153 297.549C180.262 298.015 180.379 298.48 180.504 298.946C180.545 299.102 180.588 299.257 180.631 299.411L180.504 298.946C180.338 298.325 180.185 297.704 180.046 297.084L180.153 297.549ZM179.438 293.836C179.577 294.761 179.746 295.689 179.944 296.618L179.848 296.154C179.659 295.224 179.5 294.297 179.371 293.374L179.438 293.836ZM179.071 290.617C179.13 291.379 179.209 292.145 179.309 292.913L179.252 292.452C179.16 291.685 179.089 290.921 179.037 290.161L179.071 290.617ZM178.942 287.892C178.947 288.193 178.955 288.494 178.966 288.796L178.952 288.344C178.944 288.042 178.939 287.742 178.937 287.442L178.942 287.892ZM178.95 286.106C178.943 286.401 178.938 286.696 178.937 286.993L178.942 286.544C178.944 286.398 178.946 286.252 178.95 286.106ZM178.982 285.208C178.975 285.356 178.969 285.504 178.964 285.652L178.982 285.208C178.989 285.06 178.996 284.913 179.005 284.766L178.982 285.208ZM179.063 283.885C179.052 284.031 179.041 284.177 179.032 284.324L179.063 283.884C179.075 283.738 179.087 283.592 179.099 283.446L179.063 283.885ZM179.185 282.575C179.169 282.719 179.154 282.864 179.14 283.01L179.185 282.575C179.201 282.43 179.217 282.285 179.235 282.141L179.185 282.575ZM179.877 278.322C179.85 278.444 179.824 278.567 179.799 278.689C179.853 278.427 179.91 278.167 179.97 277.908L179.877 278.322ZM180.168 277.085C180.163 277.107 180.158 277.129 180.152 277.15C180.192 276.992 180.232 276.834 180.273 276.677L180.168 277.085ZM180.979 274.321C180.764 274.962 180.565 275.612 180.383 276.272L180.497 275.868C180.647 275.346 180.808 274.831 180.979 274.321ZM181.408 273.113C181.403 273.125 181.399 273.138 181.394 273.151C181.447 273.01 181.5 272.869 181.554 272.729L181.408 273.113ZM182.109 271.385C182.024 271.579 181.94 271.774 181.859 271.97L182.017 271.595C182.047 271.525 182.078 271.455 182.109 271.385ZM183.048 269.404C182.803 269.879 182.569 270.362 182.345 270.853L182.515 270.486C182.744 270 182.984 269.52 183.233 269.05L183.048 269.404ZM185.517 265.364C185.289 265.68 185.067 266.002 184.85 266.329L185.069 266.003C185.216 265.788 185.365 265.575 185.517 265.364L185.517 265.364ZM186.431 264.16C186.278 264.351 186.128 264.544 185.979 264.739C186.128 264.544 186.278 264.351 186.431 264.16ZM188.369 261.975C188.072 262.277 187.781 262.586 187.497 262.902C187.781 262.586 188.072 262.277 188.369 261.975Z" fill="#FF323F"/>
<path d="M280.73 129.926C328.031 130.216 358.788 148.68 376.582 165.082L377.003 165.472L377.004 165.473L377.413 165.856C390.311 178.009 399.226 193.427 403.793 202.476C411.072 206.201 417.216 211.813 421.905 218.751L422.201 219.191C428.391 228.448 433.237 238.945 434.557 251.794C435.513 261.096 434.538 270.822 431.752 281.301C443.86 291.502 452.993 302.28 459.495 314.093C467.728 329.054 471.129 344.567 472.021 360.636H472.02C472.392 367.29 469.722 373.74 464.779 378.181C464.439 386.154 463.129 396.298 459.478 406.897C458.509 411.859 455.769 423.352 449.232 436.421L449.231 436.423C438.016 458.834 420.476 475.946 398.203 485.008L398.203 485.007C390.229 488.252 383.783 484.903 381.002 482.978C369.699 489.48 353.842 495.9 333.929 496.04C333.7 496.049 333.47 496.055 333.24 496.055C319.358 496.055 306.518 491.299 296.633 486.262C294.556 485.204 292.557 484.105 290.646 482.993C289.985 483.136 289.346 483.235 288.737 483.299L288.322 483.337L288.256 483.342C286.015 483.515 284.159 483.188 284.117 483.182C283.542 483.095 283.04 482.994 282.683 482.917C281.941 482.757 281.176 482.561 280.436 482.353C278.927 481.93 277.068 481.333 274.926 480.544C270.626 478.96 264.938 476.509 258.358 472.905C249.811 468.223 239.714 461.567 229.194 452.298C227.356 452.442 225.748 452.279 224.495 452.043V452.043C224.479 452.04 224.462 452.037 224.444 452.033C224.437 452.032 224.43 452.031 224.422 452.029V452.029C221.939 451.551 209.277 448.63 197.107 436.865L196.84 436.604C191.272 431.082 187.447 422.87 184.903 416.436C184.718 415.968 184.535 415.496 184.353 415.021C182.354 414.228 180.898 413.237 180.115 412.66C178.482 411.457 177.257 410.167 176.498 409.307C174.857 407.447 173.354 405.252 172.034 402.969C169.334 398.297 166.645 391.951 164.889 384.167C161.871 370.787 161.652 353.345 168.566 333.053C162.236 325.404 157.415 316.156 154.671 305.884V305.884C148.257 281.869 154.492 255.764 171.999 240.208C174.955 211.472 188.688 190.938 204.425 177.547C211.364 171.643 218.871 166.985 226.182 163.577C226.81 161.756 227.751 160.003 229.021 158.401C231.818 154.872 235.165 153.406 236.641 152.851L237.722 152.447C240.493 151.416 243.678 150.271 247.057 149.123C247.67 144.387 250.207 140.046 254.163 137.19C256.442 135.546 259.948 133.876 263.567 132.637C267.596 131.256 273.148 129.923 279.6 129.923L280.73 129.926ZM279.6 147.405C271.444 147.405 265.16 150.807 264.38 151.37C271.07 154.717 276.272 156.579 280.609 158.933C271.611 159.034 253.614 165.146 242.781 169.218C241.622 169.653 251.685 172.843 253.023 174.092C237.715 174.092 190.278 193.729 188.909 249.373C173.46 258.668 165.825 279.95 171.546 301.369C174.614 312.855 180.993 322.391 189.028 328.819C169.272 372.273 189.189 399.368 191.009 398.795C192.486 398.326 194.354 390.53 194.744 389.085C198.078 403.335 203.648 418.885 209.24 424.289C218.205 432.955 227.342 434.791 227.728 434.863C229.434 435.193 224.093 424.752 225.096 423.374C254.884 457.757 285.764 466.001 286.915 465.912C288.225 465.806 283.481 458.45 284.233 457.418C293.112 464.529 312.836 478.354 332.77 478.57L333.24 478.573L333.263 478.561C359.695 478.561 377.525 464.964 386.016 458.4C386.842 460.246 390.053 469.454 391.625 468.812C409.443 461.563 423.874 447.819 433.389 429.039L433.613 428.594C439.964 415.898 442.108 404.966 442.552 402.369C447.967 387.469 447.651 373.184 447.16 367.021C448.353 367.156 451.812 366.177 452.965 365.294L453.069 365.209C454.101 364.305 454.659 362.978 454.581 361.606C453.008 333.284 442.85 310.395 411.4 287.573C421.492 260.606 418.001 244.51 407.923 229.273L407.438 228.548C403.189 222.261 397.48 217.997 390.906 216.08C388.955 211.598 379.849 191.994 365.109 178.275C349.989 164.203 322.887 147.405 279.6 147.405ZM189.122 315.541C189.098 315.513 189.075 315.484 189.052 315.455C189.075 315.484 189.098 315.513 189.122 315.541ZM188.883 315.245C188.865 315.223 188.846 315.201 188.828 315.178L188.796 315.137C188.825 315.173 188.854 315.209 188.883 315.245ZM185.351 310.081C185.426 310.21 185.502 310.339 185.578 310.468L185.809 310.851C185.654 310.597 185.501 310.34 185.351 310.081V310.081L185.351 310.081ZM183.08 305.608L183.268 306.031C183.205 305.891 183.142 305.75 183.08 305.608V305.608L183.08 305.608ZM182.715 304.754C182.661 304.622 182.607 304.49 182.553 304.357L182.715 304.754ZM182.508 304.245C182.465 304.139 182.423 304.033 182.381 303.926C182.423 304.033 182.465 304.139 182.508 304.245ZM182.339 303.818C182.291 303.696 182.244 303.573 182.197 303.45V303.45C182.244 303.573 182.291 303.696 182.339 303.818ZM181.872 302.566L182.033 303.01C181.979 302.863 181.925 302.715 181.872 302.567L181.716 302.12C181.767 302.269 181.82 302.418 181.872 302.566ZM181.271 300.764L181.415 301.219C181.366 301.068 181.318 300.916 181.271 300.764V300.764L181.271 300.764ZM180.738 298.918L180.864 299.384C180.821 299.229 180.779 299.074 180.737 298.918C180.698 298.771 180.66 298.624 180.622 298.477C180.66 298.624 180.698 298.771 180.738 298.918ZM180.178 296.585C180.147 296.442 180.117 296.298 180.088 296.154L180.178 296.585ZM180.063 296.03C180.046 295.946 180.029 295.862 180.013 295.779C180.029 295.862 180.046 295.946 180.063 296.03ZM179.996 295.692C179.981 295.61 179.965 295.529 179.95 295.447C179.965 295.529 179.981 295.61 179.996 295.692ZM179.924 295.307C179.912 295.24 179.899 295.173 179.887 295.106C179.899 295.173 179.912 295.24 179.924 295.307ZM179.863 294.972C179.851 294.904 179.839 294.837 179.828 294.77C179.839 294.837 179.851 294.904 179.863 294.972ZM179.802 294.615C179.79 294.548 179.779 294.48 179.768 294.413C179.779 294.48 179.79 294.548 179.802 294.615ZM179.704 294.016C179.719 294.113 179.735 294.21 179.751 294.307C179.735 294.21 179.719 294.113 179.704 294.016ZM179.7 293.987C179.69 293.924 179.68 293.861 179.671 293.798L179.657 293.7C179.671 293.796 179.685 293.891 179.7 293.987ZM179.477 292.35C179.463 292.228 179.45 292.105 179.437 291.983C179.45 292.105 179.463 292.228 179.477 292.35ZM179.415 291.791C179.404 291.681 179.393 291.571 179.383 291.461C179.393 291.571 179.404 291.681 179.415 291.791ZM179.358 291.21C179.345 291.077 179.334 290.944 179.323 290.811C179.334 290.944 179.345 291.077 179.358 291.21ZM179.31 290.648C179.308 290.623 179.305 290.598 179.303 290.573L179.27 290.115C179.282 290.293 179.296 290.47 179.31 290.648ZM179.175 287.842C179.178 287.993 179.181 288.144 179.185 288.295L179.199 288.748C179.188 288.446 179.18 288.144 179.175 287.842V287.842L179.175 287.842ZM179.174 286.492L179.17 286.941C179.17 286.793 179.172 286.644 179.174 286.496L179.179 286.232L179.174 286.492ZM179.215 285.153L179.197 285.598C179.202 285.45 179.208 285.301 179.215 285.153L179.237 284.71C179.229 284.857 179.222 285.005 179.215 285.153ZM179.296 283.827L179.264 284.267C179.274 284.12 179.285 283.974 179.296 283.827L179.332 283.388C179.32 283.534 179.308 283.68 179.296 283.827ZM179.418 282.514L179.373 282.95C179.387 282.805 179.402 282.659 179.418 282.514L179.468 282.08C179.45 282.225 179.434 282.369 179.418 282.514ZM180.203 277.839C180.143 278.098 180.087 278.359 180.032 278.621C180.058 278.499 180.083 278.376 180.11 278.254L180.203 277.839ZM180.385 277.079C180.391 277.058 180.396 277.036 180.401 277.015L180.507 276.606C180.465 276.763 180.425 276.921 180.385 277.079ZM180.742 275.756C180.761 275.689 180.781 275.621 180.801 275.554C180.781 275.621 180.761 275.689 180.742 275.756ZM180.875 275.307C180.894 275.244 180.913 275.18 180.933 275.117C180.913 275.18 180.894 275.244 180.875 275.307ZM181.038 274.78C181.05 274.745 181.061 274.71 181.072 274.675C181.061 274.71 181.05 274.745 181.038 274.78ZM181.628 273.072C181.632 273.06 181.637 273.047 181.642 273.034L181.788 272.65C181.734 272.79 181.68 272.931 181.628 273.072ZM163.42 272.919C163.422 272.912 163.423 272.905 163.425 272.899C163.425 272.898 163.426 272.897 163.426 272.897C163.424 272.905 163.422 272.912 163.42 272.919ZM182.093 271.89C182.14 271.776 182.188 271.663 182.236 271.551L182.093 271.89ZM183.282 269.319C183.099 269.675 182.921 270.037 182.749 270.403L182.579 270.77C182.747 270.402 182.921 270.037 183.101 269.677L183.282 269.319ZM185.085 266.237C185.149 266.141 185.213 266.045 185.278 265.95L185.085 266.237ZM185.353 265.839C185.397 265.776 185.441 265.713 185.484 265.65C185.441 265.713 185.397 265.776 185.353 265.839ZM185.558 265.544C185.622 265.452 185.687 265.361 185.752 265.271L185.752 265.27C185.687 265.361 185.622 265.452 185.558 265.544ZM180.47 297.868L180.386 297.518C180.421 297.667 180.457 297.816 180.494 297.966C180.486 297.933 180.478 297.9 180.47 297.868ZM163.413 272.946L163.408 272.969C163.409 272.966 163.414 272.945 163.42 272.919C163.418 272.929 163.415 272.939 163.413 272.946Z" fill="#FF323F"/>
<path d="M441.911 391.687L445.561 362.306L451.2 361.359L447.857 339.697C447.857 339.697 446.43 323.405 441.17 321.996C435.909 320.586 423.61 303.358 423.61 303.358L414.621 291.801L405.582 286.815C405.582 286.815 413.674 271.698 413.674 268.395C413.674 265.092 411.331 245.601 411.331 245.601L403.26 231.93C403.26 231.93 395.463 225.084 394.037 222.377C392.61 219.67 383.825 217.435 383.825 217.435L375.835 197.729L359.134 182.25L338.615 165.378L296.463 154.522L285.134 152.15H281.166L285.853 163.707L266.477 165.495L250.979 171.394L260.603 174.324L209.579 202.051C209.579 202.051 202.647 217.152 202.396 218.143C202.145 219.134 196.946 233.984 196.45 235.722C195.954 237.46 193.976 254.537 193.976 254.537C193.976 254.537 192.895 326 193.185 327.153C193.474 328.306 188.275 344.042 188.275 345.707C188.275 347.372 185.801 374.849 185.55 376.336C185.299 377.824 186.804 388.88 186.804 388.88C186.804 388.88 188.024 391.932 188.771 393.174C189.518 394.417 195.954 383.522 195.954 383.522C195.954 383.522 198.484 396.115 198.88 397.463C199.275 398.811 218.245 428.082 218.245 428.082L225.428 418.178C225.428 418.178 245.339 442.519 247.151 442.107C248.962 441.695 279.316 460.521 280.793 460.761C282.27 461 285.363 454.316 285.363 454.316C285.363 454.316 298.843 464.716 299.718 465.228C300.593 465.74 317.729 473.873 317.729 473.873L364.974 468.765L387.176 456.26L391.389 463.746L423.409 436.626L433.981 425.102C433.981 425.102 438.684 400.349 439.431 399.853C440.178 399.357 441.905 391.682 441.905 391.682L441.911 391.687Z" fill="#F1EEE1"/>
<path d="M445.225 357.857L443.547 385.479L439.791 411.452L415.834 427.671L387.67 440.276L344.838 443.017L307.189 429.977L269.874 389.378C269.874 389.378 266.241 366.931 266.241 364.786C266.241 362.642 261.95 342.545 263.432 341.125C264.914 339.704 267.89 323.201 268.553 322.371C269.216 321.541 295.899 306.903 295.899 306.903L305.322 304.502C289.988 298.164 282.324 292.366 270.203 278.641C270.203 278.641 268.28 265.284 267.344 263.379C266.408 261.474 269.177 241.322 269.177 241.322L286.531 217.716C286.531 217.716 300.112 211.745 301.326 211.517C302.541 211.288 316.111 209.985 316.111 209.985C316.111 209.985 329.775 215.026 330.968 215.599C332.16 216.173 340.937 225.497 344.041 227.313C347.145 229.129 353.743 232.432 353.743 232.432C353.743 232.432 359.862 220.384 361.673 219.56C363.484 218.735 373.815 220.791 377.576 219.56C381.338 218.329 383.451 219.67 386.471 219.56C389.491 219.45 394.046 220.724 396.353 223.202C398.66 225.681 403.265 230.287 404.753 232.432C406.241 234.576 408.837 235.415 408.542 238.685C408.246 241.954 415.505 264.454 415.505 264.454C415.505 264.454 412.368 277.326 412.039 278.646C411.71 279.966 410.055 287.391 409.894 288.55C409.732 289.708 425.442 302.714 425.442 302.714C425.442 302.714 444.405 329.729 444.901 330.553C445.397 331.377 448.368 344.912 448.368 347.385C448.368 349.859 448.574 354.108 448.245 355.429C447.916 356.749 447.392 361.656 447.392 361.656L445.23 357.863L445.225 357.857Z" fill="#FF323F"/>
<path d="M313.643 326.898C313.181 328.296 310.528 328.636 307.117 329.221C305.412 329.555 303.529 329.962 301.601 330.641C300.631 330.964 299.656 331.399 298.653 331.861C297.666 332.379 296.646 332.891 295.638 333.565C291.57 336.155 288.12 339.592 285.395 342.115C282.664 344.65 280.625 346.265 279.299 345.714C277.983 345.184 277.744 342.249 279.237 338.172C279.978 336.133 281.182 333.822 282.943 331.477C283.835 330.312 284.849 329.126 286.047 328.007C287.223 326.87 288.583 325.806 290.087 324.843C291.581 323.862 293.197 323.116 294.796 322.498C295.615 322.225 296.412 321.957 297.22 321.768C298.034 321.601 298.82 321.4 299.611 321.328C302.754 320.921 305.591 321.289 307.786 321.941C309.982 322.648 311.576 323.567 312.54 324.481C313.504 325.405 313.877 326.224 313.649 326.898H313.643Z" fill="#F1EEE1"/>
<path d="M412.696 404.066C412.696 404.066 428.054 390.348 433.995 363.79C433.995 362.253 393.882 372.295 379.259 370.958C364.637 369.622 329.724 362.236 329.724 362.236L317.586 350.104L299.999 339.209L294.075 335.6C294.075 335.6 298.166 351.959 298.611 353.29C299.057 354.622 304.702 371.644 304.953 372.635C305.204 373.626 314.733 384.633 315.937 386.081C317.141 387.529 330.732 400.089 330.732 400.089L358.869 412.115L405.462 408.623L412.696 404.072V404.066Z" fill="#F1EEE1"/>
<path d="M317.75 353.897C317.75 353.897 321.216 367.549 323.858 370.958C326.499 374.367 353.911 388.888 385.943 388.888C417.975 388.888 424.746 374.2 424.746 366.936L391.555 370.239C391.555 370.239 376.364 371.231 372.569 371.392C368.774 371.554 349.949 369.577 347.804 368.585C345.658 367.594 317.75 353.897 317.75 353.897Z" fill="#FF323F"/>
<path d="M327.459 397.054C327.459 397.054 322.661 387.73 335.044 388.226C347.426 388.721 360.149 393.434 369.717 400.48C372.069 402.212 373.434 400.106 369.717 396.764C368.357 395.528 390.024 393.796 395.352 396.391C400.679 398.987 406.124 406.417 406.124 406.417L396.104 411.28C396.104 411.28 365.738 414.421 365.259 413.758C364.78 413.096 339.892 405.504 333.567 402C327.242 398.497 327.459 397.049 327.459 397.049V397.054Z" fill="#FF323F"/>
<path d="M424.749 399.778C425.139 400.368 423.311 402.39 419.354 405.047C415.398 407.687 409.296 410.99 401.16 413.748C397.097 415.118 392.522 416.343 387.501 417.206C382.485 418.07 377.007 418.566 371.217 418.415C365.433 418.276 359.342 417.513 353.195 415.942C352.432 415.736 351.646 415.58 350.888 415.329C350.125 415.095 349.356 414.856 348.587 414.616C347.032 414.171 345.533 413.547 343.995 412.99L342.847 412.556L341.716 412.06C340.963 411.726 340.205 411.397 339.447 411.063C338.684 410.745 337.937 410.344 337.191 409.96C336.438 409.57 335.691 409.186 334.934 408.796C328.96 405.554 323.66 401.46 319.129 397.01C314.593 392.554 310.815 387.736 307.694 382.901C301.453 373.204 297.769 363.556 295.468 355.374C293.177 347.164 292.269 340.341 292.035 335.612C291.812 330.872 292.275 328.209 292.982 328.148C293.696 328.087 294.582 330.526 295.992 334.899C297.418 339.26 299.363 345.56 302.389 353.023C305.421 360.465 309.544 369.115 315.58 377.559C318.594 381.77 322.094 385.909 326.145 389.707C330.191 393.501 334.778 396.96 339.91 399.739C340.556 400.073 341.203 400.407 341.849 400.742C342.496 401.076 343.12 401.427 343.8 401.705C344.463 402.006 345.126 402.301 345.789 402.596L346.776 403.042L347.784 403.432C349.127 403.933 350.437 404.512 351.797 404.919C352.471 405.142 353.14 405.365 353.803 405.582C354.466 405.821 355.151 405.966 355.814 406.161C361.175 407.665 366.514 408.534 371.652 408.907C376.796 409.286 381.744 409.152 386.364 408.718C390.989 408.283 395.291 407.559 399.192 406.713C407.011 405.019 413.23 402.897 417.554 401.449C421.89 399.99 424.348 399.182 424.738 399.778H424.749Z" fill="#F1EEE1"/>
<path d="M333.042 478.336C312.958 478.336 293.002 464.366 284.058 457.209C283.306 458.239 288.048 465.586 286.739 465.692C285.591 465.781 254.724 457.548 224.949 423.209C223.946 424.585 229.284 435.012 227.579 434.684C227.194 434.611 218.061 432.779 209.1 424.123C203.51 418.726 197.943 403.196 194.611 388.965C194.221 390.408 192.354 398.195 190.877 398.662C189.021 399.247 168.33 371.058 190.158 326.097C189.718 321.546 188.748 305.426 188.748 251.904C188.748 194.444 237.337 174.253 252.862 174.253C251.525 173.005 241.466 169.819 242.625 169.385C253.453 165.319 271.442 159.214 280.436 159.114C276.1 156.763 270.901 154.903 264.214 151.561C264.994 150.998 271.275 147.601 279.427 147.601C322.694 147.601 349.783 164.377 364.896 178.431C381.385 193.765 390.821 216.462 391.072 217.108C391.969 219.397 390.838 221.987 388.542 222.878C386.251 223.775 380.338 215.243 379.441 212.948C382.718 220.216 373.651 198.616 358.498 184.652C339.674 167.302 315.338 157.9 286.087 156.652C287.185 158.618 288.444 160.295 289.62 161.041C290.188 161.164 290.746 161.297 291.303 161.436C291.476 161.481 291.626 161.52 291.749 161.548C293.588 161.988 295.048 163.469 295.265 165.352C295.583 168.109 293.454 170.371 290.84 170.371C289.391 170.371 288.048 170.076 286.811 169.563C279.923 168.249 272.038 168.638 263.255 170.733C264.27 171.474 264.966 172.638 265.072 173.975C265.256 176.292 263.634 178.358 261.338 178.731C261.182 178.759 244.983 181.511 229.111 192.005C208.247 205.801 197.67 225.954 197.67 251.899C197.67 315.541 199.063 325.623 199.141 326.13C199.298 327.06 199.158 328.013 198.74 328.859C187.277 351.925 186.909 368.902 188.804 379.385C190.253 375.597 191.641 372.612 191.953 371.949C192.945 369.854 195.402 368.835 197.637 369.71C199.353 370.384 200.44 372.105 200.445 373.948C200.468 399.621 209.379 412.816 217.286 419.472C216.283 414.414 217.448 410.9 217.537 410.644C218.089 409.051 219.499 407.909 221.17 407.686C222.842 407.469 224.497 408.209 225.439 409.608C242.609 434.979 258.257 446.47 268.36 451.639C271.481 453.237 274.278 454.34 276.674 455.109C273.32 448.274 272.813 442.147 272.785 441.774C272.623 439.613 274.039 437.647 276.145 437.118C278.246 436.583 280.43 437.652 281.305 439.635C281.333 439.697 284.788 447.244 292.902 454.641C303.657 464.444 317.171 469.413 333.065 469.413C353.11 469.413 366.038 464.277 373.35 459.966C381.207 455.337 384.445 450.647 384.478 450.597C385.81 448.57 388.524 447.979 390.603 449.305C392.481 450.502 393.094 452.959 392.208 455.003C391.539 456.546 391.444 457.799 391.595 458.768C405.956 451.973 417.274 440.527 425.265 424.685C431.824 411.691 433.557 400.473 433.574 400.361C433.936 397.927 436.199 396.251 438.639 396.613C441.075 396.975 442.752 399.231 442.395 401.665C442.323 402.172 440.495 414.186 433.368 428.423C423.861 447.405 409.349 461.292 391.4 468.588C389.828 469.229 386.618 460.033 385.794 458.189C377.306 464.745 359.485 478.325 333.065 478.325L333.042 478.336Z" fill="#F1EEE1"/>
<path d="M394.075 241.907C394.527 241.7 394.744 241.082 394.722 240.074C394.722 239.567 394.616 238.982 394.427 238.314C394.271 237.634 393.953 236.91 393.563 236.108C392.744 234.543 391.395 232.71 389.25 231.251C388.196 230.505 386.937 229.92 385.594 229.491C384.24 229.073 382.796 228.878 381.347 228.839C379.904 228.839 378.533 229.012 377.274 229.296C376.02 229.602 374.85 229.976 373.808 230.444C371.701 231.346 370.04 232.471 368.759 233.535C366.212 235.696 365.226 237.673 365.839 238.442C366.457 239.227 368.413 238.793 371.211 237.985C372.609 237.595 374.214 237.094 375.942 236.71C376.806 236.498 377.692 236.353 378.589 236.214C379.486 236.097 380.383 236.036 381.275 236.03C383.042 236.075 384.563 236.37 385.911 236.977C387.271 237.556 388.48 238.403 389.539 239.227C391.623 240.921 393.134 242.347 394.07 241.912L394.075 241.907Z" fill="#F1EEE1"/>
<path d="M357.827 309.06C370.198 318.373 366.075 324.277 351.184 319.671C347.317 318.473 343.305 318.094 342.407 314.145C341.51 310.196 343.985 306.269 347.936 305.372C351.887 304.476 354.595 306.626 357.827 309.06Z" fill="#F1EEE1"/>
<path d="M391.523 309.995C382.886 320.505 387.633 324.694 399.392 317.681C402.451 315.86 405.795 314.707 405.745 311.148C405.695 307.589 402.769 304.748 399.208 304.798C395.647 304.848 393.78 307.243 391.523 309.995Z" fill="#F1EEE1"/>
<path d="M323.47 293.053C333.121 292.915 340.799 282.649 340.619 270.124C340.44 257.599 332.471 247.557 322.82 247.695C313.17 247.833 305.492 258.099 305.671 270.624C305.85 283.149 313.819 293.191 323.47 293.053Z" fill="#F1EEE1"/>
<path d="M311.686 283.127C316.739 283.055 320.76 277.68 320.666 271.122C320.572 264.564 316.399 259.307 311.346 259.379C306.293 259.451 302.273 264.826 302.367 271.384C302.461 277.942 306.633 283.199 311.686 283.127Z" fill="#FF323F"/>
<path d="M377.836 287.614C386.576 287.489 393.53 278.192 393.367 266.848C393.205 255.504 385.988 246.409 377.248 246.534C368.508 246.659 361.555 255.957 361.717 267.301C361.88 278.645 369.097 287.739 377.836 287.614Z" fill="#F1EEE1"/>
<path d="M364.093 277.472C368.435 277.41 371.89 272.792 371.809 267.157C371.729 261.522 368.143 257.004 363.801 257.066C359.459 257.128 356.004 261.747 356.085 267.382C356.166 273.017 359.751 277.534 364.093 277.472Z" fill="#FF323F"/>
<path d="M387.414 353.731C386.629 353.157 386.84 351.542 386.74 349.514C386.696 348.489 386.59 347.336 386.35 346.033C386.116 344.735 385.748 343.293 385.263 341.739C384.288 338.642 383.068 335.74 382.304 333.523C381.92 332.414 381.647 331.479 381.546 330.771C381.496 330.415 381.496 330.12 381.541 329.88C381.558 329.607 381.58 329.412 381.702 329.223C381.831 329.011 382.054 328.805 382.36 328.76C382.7 328.727 383.09 328.799 383.508 328.944C384.344 329.24 385.314 329.852 386.322 330.766C388.323 332.593 390.552 335.623 391.839 339.678C392.474 341.7 392.781 343.788 392.697 345.732C392.619 347.676 392.14 349.453 391.444 350.795C390.752 352.143 389.889 353.046 389.153 353.502C388.406 353.965 387.799 354.004 387.414 353.736V353.731Z" fill="#F1EEE1"/>
<path d="M219.21 327.206C235.21 322.933 243.869 303.339 238.549 283.442C233.23 263.544 215.948 250.878 199.948 255.152C183.948 259.425 175.29 279.019 180.609 298.916C185.928 318.813 203.21 331.479 219.21 327.206Z" fill="#FF323F"/>
<path d="M217.188 313.211C216.848 313.83 215.221 313.752 212.691 312.638C211.431 312.07 209.943 311.245 208.338 309.97C206.761 308.677 204.95 306.979 203.64 304.132C203.005 302.718 202.548 300.957 202.621 299.036C202.676 297.12 203.295 295.153 204.237 293.516C205.184 291.856 206.36 290.486 207.703 289.233C209.085 287.974 210.879 286.732 213.198 286.041C213.777 285.879 214.362 285.724 214.986 285.651C215.599 285.545 216.229 285.529 216.859 285.523C217.177 285.512 217.483 285.556 217.795 285.573C218.107 285.601 218.425 285.623 218.726 285.685L219.183 285.768L219.294 285.79L219.35 285.801H219.339C219.339 285.801 219.305 285.79 219.289 285.785C219.25 285.779 219.294 285.774 219.289 285.774C219.361 285.746 219.378 285.723 219.383 285.69C219.389 285.657 219.372 285.59 219.344 285.568C219.316 285.54 219.305 285.54 219.305 285.54C219.305 285.54 219.305 285.54 219.311 285.54C219.311 285.54 219.311 285.54 219.316 285.54C219.155 285.272 218.993 284.999 218.832 284.732C218.497 284.114 218.063 283.596 217.695 283.022C217.489 282.76 217.282 282.498 217.076 282.237C216.87 281.975 216.675 281.708 216.447 281.485C214.719 279.552 212.796 278.037 210.746 277.129C210.489 277.012 210.233 276.901 209.982 276.784C209.726 276.678 209.458 276.611 209.202 276.516C208.94 276.438 208.689 276.321 208.422 276.266C208.154 276.204 207.892 276.149 207.631 276.087C207.112 275.931 206.566 275.915 206.042 275.831L205.647 275.775L205.273 275.759C205.028 275.759 204.766 275.714 204.538 275.731C202.615 275.72 201.194 276.16 199.968 276.99C198.748 277.825 197.756 279.117 197.02 280.454C196.279 281.791 195.755 283.128 195.326 284.247C194.479 286.514 193.955 287.918 193.236 287.979C192.54 288.041 191.676 286.626 191.325 283.835C191.163 282.437 191.135 280.683 191.548 278.599C191.748 277.558 192.088 276.433 192.618 275.252C193.147 274.082 193.888 272.851 194.925 271.704C195.956 270.556 197.288 269.509 198.815 268.735C200.336 267.955 202.036 267.437 203.741 267.203C204.175 267.12 204.588 267.109 205.023 267.064C205.234 267.047 205.457 267.025 205.669 267.014H206.304C207.151 267.014 208.021 266.975 208.901 267.103C209.341 267.153 209.787 267.203 210.233 267.253C210.679 267.309 211.119 267.426 211.57 267.521C212.016 267.627 212.473 267.71 212.919 267.844C213.359 267.989 213.805 268.139 214.251 268.284C217.834 269.504 221.144 271.782 223.881 274.606C224.237 274.951 224.555 275.324 224.872 275.698C225.19 276.071 225.519 276.444 225.825 276.834C226.399 277.63 227.035 278.41 227.536 279.262L227.932 279.892C228.066 280.109 228.183 280.282 228.378 280.621C228.757 281.373 229.136 282.125 229.515 282.883L230.083 284.019L230.523 285.166C230.813 285.93 231.103 286.698 231.398 287.467C231.582 288.202 231.721 288.915 231.883 289.634L232.117 290.709C232.128 290.753 232.139 290.798 232.145 290.842L232.128 290.948L232.1 291.154L232.039 291.566C231.955 292.118 231.877 292.664 231.799 293.21C231.788 293.354 231.744 293.471 231.699 293.588C231.654 293.711 231.621 293.822 231.565 293.945C231.454 294.19 231.337 294.435 231.197 294.697C230.64 295.716 229.726 296.719 228.695 297.393C227.664 298.067 226.522 298.412 225.775 298.512C225.419 298.573 225.045 298.573 224.65 298.585C224.148 298.551 223.719 298.562 223.039 298.39C222.471 298.34 221.674 297.944 220.949 297.654C220.57 297.443 220.175 297.131 219.79 296.875L219.211 296.474L218.659 296.145C218.28 295.939 217.951 295.688 217.539 295.516L216.97 295.332C216.892 295.298 216.82 295.298 216.747 295.282C216.675 295.276 216.603 295.231 216.536 295.243C216.396 295.243 216.257 295.204 216.118 295.22C215.978 295.204 215.834 295.237 215.683 295.254C215.087 295.332 214.323 295.66 213.532 296.229C212.718 296.824 211.994 297.493 211.504 298.089C211.008 298.696 210.729 299.225 210.573 299.777C210.417 300.328 210.395 300.963 210.528 301.676C210.657 302.389 210.941 303.152 211.292 303.887C211.654 304.622 212.089 305.33 212.529 305.998C213.421 307.33 214.357 308.477 215.12 309.441C216.669 311.368 217.544 312.599 217.193 313.228L217.188 313.211Z" fill="#F1EEE1"/>
<path d="M197.438 245.76C218.511 240.132 241.029 255.901 247.733 280.982C254.438 306.062 242.791 330.956 221.718 336.584C200.646 342.212 178.128 326.442 171.423 301.362C164.718 276.282 176.366 251.387 197.438 245.76ZM238.551 283.44C233.232 263.543 215.949 250.877 199.95 255.15C183.95 259.423 175.291 279.017 180.61 298.914C185.93 318.811 203.212 331.477 219.212 327.204C235.212 322.931 243.87 303.337 238.551 283.44Z" fill="#F1EEE1"/>
<path d="M378.352 314.456C378.642 314.589 379.127 314.294 379.545 313.514C379.957 312.74 380.28 311.459 380.186 309.827C380.097 308.201 379.584 306.262 378.598 304.263C377.617 302.263 376.168 300.23 374.373 298.23C372.601 296.231 370.272 294.147 367.435 292.465C364.599 290.766 361.233 289.43 357.538 288.722C353.838 288.071 349.82 287.987 345.791 288.795C344.777 288.962 343.779 289.251 342.771 289.513C341.779 289.842 340.764 290.143 339.789 290.566C337.816 291.362 335.877 292.365 334.055 293.613C332.233 294.86 330.527 296.264 329.051 297.885C327.568 299.495 326.287 301.266 325.239 303.149C324.225 305.053 323.461 307.053 322.949 309.069C322.48 311.102 322.263 313.136 322.291 315.096C322.352 317.001 322.519 318.828 322.943 320.616C323.339 322.393 323.901 324.103 324.659 325.662C326.125 328.809 328.259 331.333 330.444 333.149C332.639 334.975 334.88 336.167 336.88 336.958C338.886 337.755 340.681 338.162 342.152 338.356C345.1 338.735 346.789 338.306 346.872 337.682C346.961 337.042 345.59 336.268 343.294 334.925C342.152 334.251 340.781 333.438 339.338 332.38C337.889 331.333 336.373 330.035 335.019 328.431C333.67 326.832 332.5 324.927 331.776 322.705C331.391 321.602 331.14 320.41 330.984 319.151C330.806 317.909 330.8 316.544 330.856 315.196C330.934 313.899 331.168 312.612 331.53 311.331C331.937 310.061 332.478 308.813 333.169 307.61C333.899 306.418 334.774 305.276 335.788 304.207C336.797 303.132 337.995 302.174 339.265 301.299C340.542 300.419 341.918 299.69 343.333 299.094C344.03 298.771 344.76 298.542 345.473 298.28C346.203 298.08 346.922 297.835 347.658 297.69C350.572 296.988 353.504 296.905 356.251 297.172C358.993 297.495 361.551 298.236 363.83 299.255C366.126 300.28 368.087 301.567 369.86 302.976C371.632 304.374 373.114 305.744 374.24 307.048C375.36 308.351 376.151 309.571 376.681 310.629C377.756 312.757 377.784 314.194 378.375 314.444L378.352 314.456Z" fill="#F1EEE1"/>
<path d="M420.533 301.377C420.126 299.645 419.419 297.885 418.41 296.253C417.407 294.615 416.109 293.106 414.626 291.814C413.144 290.51 411.478 289.446 409.733 288.555C409.299 288.327 408.858 288.11 408.407 287.92C407.956 287.731 407.521 287.519 407.042 287.347C406.563 287.174 406.078 287.001 405.587 286.829C405.091 286.673 404.59 286.55 404.083 286.411C400.015 285.38 395.529 285.447 391.377 286.489C387.209 287.519 383.536 289.33 380.337 291.402C377.128 293.496 374.375 295.819 371.939 298.375C371.9 298.414 371.867 298.453 371.828 298.492L377.362 304.725C377.518 304.58 377.668 304.441 377.824 304.296C382.054 300.503 387.61 296.765 393.545 295.289C396.509 294.554 399.385 294.493 402.054 295.055C402.383 295.139 402.717 295.2 403.046 295.289C403.369 295.39 403.698 295.49 404.021 295.59C404.345 295.685 404.679 295.835 405.008 295.952C405.342 296.069 405.66 296.208 405.966 296.353C407.215 296.91 408.357 297.54 409.321 298.269C411.266 299.723 412.575 301.489 413.305 303.461C414.041 305.427 414.214 307.582 414.019 309.604C413.852 311.637 413.328 313.52 412.782 315.169C412.219 316.817 411.584 318.232 411.037 319.402C409.945 321.741 409.254 323.151 409.717 323.613C410.135 324.036 411.701 323.468 413.857 321.519C414.933 320.544 416.142 319.218 417.301 317.458C418.444 315.692 419.597 313.514 420.31 310.813C421.04 308.139 421.352 304.875 420.528 301.394L420.533 301.377Z" fill="#F1EEE1"/>
<path d="M366.128 446.894C275.918 446.894 256.162 378.094 256.162 351.586C256.162 338.318 260.972 325.947 269.698 316.74C275.165 310.975 281.992 306.736 289.677 304.23C287.637 303.144 285.525 301.879 283.407 300.426C268.5 290.166 260.621 275.155 260.621 257.024C260.621 235.736 272.563 217.299 291.047 210.047C300.889 206.187 311.834 205.842 322.695 209.055C333.004 212.102 342.918 218.162 352.236 227.102C357.095 219.477 364.181 215.036 382.487 215.036C392.496 215.036 401.278 219.866 407.213 228.638C417.656 244.073 421.421 260.227 411.173 287.587C442.608 310.379 452.762 333.238 454.333 361.523C454.411 362.893 453.854 364.219 452.823 365.121C451.792 366.023 448.147 367.071 446.916 366.931C447.635 375.944 447.98 402.351 430.51 422.609C416.612 438.729 394.95 446.9 366.134 446.9L366.128 446.894ZM308.111 215.728C303.397 215.728 298.766 216.586 294.302 218.341C279.256 224.245 269.537 239.423 269.537 257.019C269.537 272.303 275.906 284.434 288.467 293.079C298.036 299.663 307.582 301.645 307.676 301.662C309.922 302.113 311.46 304.197 311.232 306.475C311.003 308.753 309.086 310.485 306.796 310.485C279.412 310.485 265.079 331.155 265.079 351.58C265.079 364.258 270.038 385.401 284.009 403.264C302.026 426.296 329.655 437.977 366.128 437.977C392.198 437.977 411.568 430.864 423.7 416.839C439.755 398.274 438.484 372.652 437.905 366.48C432.165 366.631 398.79 374.295 371.573 374.295C341.921 374.295 321.736 362.665 310.023 352.912C297.272 342.295 291.582 331.662 291.348 331.217C290.2 329.039 291.036 326.343 293.215 325.195C295.394 324.048 298.091 324.883 299.239 327.061C299.284 327.15 304.517 336.814 316.035 346.317C331.377 358.972 350.062 365.383 371.579 365.383C397.781 365.383 409.924 361.729 419.961 360.292C431.546 358.632 430.527 358.682 444.887 356.421C441.627 332.464 431.909 312.975 403.192 292.85C401.498 291.664 400.841 289.464 401.615 287.542C411.852 262.032 408.857 246.986 399.818 233.629C395.533 227.29 389.537 223.943 382.476 223.943C362.743 223.943 357.703 235.418 357.34 236.254C356.738 237.635 355.485 238.627 353.997 238.877C352.514 239.128 350.999 238.627 349.973 237.524C336.716 223.242 322.037 215.728 308.1 215.728H308.111Z" fill="#F1EEE1"/>
<path d="M336.451 241.462C336.869 240.877 336.685 239.942 335.938 238.699C335.748 238.393 335.537 238.053 335.264 237.725C334.991 237.402 334.679 237.062 334.327 236.711C333.976 236.366 333.603 235.981 333.168 235.625C332.728 235.279 332.249 234.917 331.731 234.555C329.652 233.141 326.832 231.737 323.305 231.102C322.424 230.963 321.516 230.801 320.568 230.785C320.095 230.762 319.616 230.74 319.136 230.734C318.651 230.762 318.161 230.785 317.671 230.812C317.425 230.829 317.175 230.846 316.929 230.862C316.684 230.896 316.434 230.935 316.188 230.974C315.692 231.057 315.191 231.135 314.689 231.219C313.708 231.475 312.689 231.687 311.73 232.066C307.796 233.425 304.636 235.692 302.218 237.987C299.816 240.32 298.105 242.727 296.968 244.882C294.683 249.204 294.533 252.441 295.792 253.098C297.068 253.777 299.392 252.079 302.68 249.528C305.946 246.999 310.259 243.59 315.18 241.88C315.787 241.629 316.406 241.512 317.002 241.306C317.303 241.239 317.609 241.173 317.905 241.111L318.351 241.005L318.796 240.944C319.092 240.9 319.387 240.849 319.682 240.799C319.978 240.777 320.273 240.749 320.563 240.727C321.148 240.643 321.728 240.666 322.302 240.643C324.597 240.61 326.81 240.955 328.771 241.295C329.262 241.39 329.736 241.473 330.198 241.546C330.661 241.635 331.095 241.724 331.508 241.808C331.926 241.886 332.327 241.941 332.706 241.986C333.085 242.036 333.43 242.097 333.759 242.125C335.074 242.242 336.038 242.058 336.451 241.473V241.462Z" fill="#F1EEE1"/>
<path d="M279.122 147.609C322.393 147.609 349.485 164.376 364.6 178.42C379.334 192.112 388.437 211.678 390.388 216.152C396.959 218.065 402.666 222.32 406.914 228.595C417.358 244.02 421.123 260.164 410.874 287.506C442.312 310.285 452.467 333.129 454.039 361.396C454.117 362.765 453.559 364.09 452.528 364.992C451.497 365.894 447.853 366.94 446.621 366.801C447.112 372.952 447.428 387.209 442.015 402.08C441.571 404.673 439.427 415.583 433.079 428.255C423.571 447.226 409.058 461.103 391.106 468.395C389.535 469.035 386.325 459.845 385.5 458.003C377.011 464.554 359.188 478.125 332.765 478.125L332.743 478.137C312.657 478.137 292.699 464.176 283.754 457.023C283.001 458.053 287.744 465.395 286.434 465.501C285.284 465.589 254.415 457.361 224.638 423.045C223.635 424.42 228.974 434.84 227.268 434.512C226.883 434.44 217.749 432.608 208.787 423.958C203.197 418.564 197.629 403.045 194.297 388.822C193.906 390.264 192.039 398.046 190.563 398.513C188.744 399.086 168.834 372.043 188.583 328.672C180.55 322.257 174.174 312.74 171.107 301.276C165.388 279.899 173.02 258.657 188.464 249.38C189.832 193.844 237.252 174.245 252.554 174.245C251.217 172.998 241.157 169.814 242.316 169.38C253.145 165.316 271.136 159.216 280.131 159.115C275.795 156.766 270.595 154.907 263.907 151.567C264.687 151.005 270.968 147.609 279.122 147.609ZM188.383 315.058C188.563 315.283 188.745 315.506 188.928 315.727C188.653 315.396 188.382 315.06 188.115 314.718L188.383 315.058ZM184.907 309.971C185.057 310.229 185.21 310.486 185.365 310.74L185.134 310.357C184.982 310.101 184.831 309.842 184.683 309.582L184.907 309.971ZM182.637 305.507C182.699 305.648 182.762 305.789 182.825 305.929L182.637 305.507C182.575 305.366 182.513 305.224 182.453 305.082L182.637 305.507ZM181.755 303.353C181.921 303.791 182.094 304.225 182.272 304.654L182.096 304.223C181.98 303.935 181.866 303.645 181.755 303.353V303.353ZM181.429 302.471C181.482 302.619 181.536 302.766 181.59 302.913L181.43 302.471C181.377 302.323 181.324 302.174 181.273 302.025L181.429 302.471ZM180.828 300.672C180.876 300.824 180.924 300.975 180.972 301.126L180.829 300.672C180.781 300.521 180.735 300.368 180.689 300.216L180.828 300.672ZM179.944 297.432C180.053 297.898 180.17 298.363 180.295 298.829C180.336 298.985 180.379 299.14 180.422 299.294L180.295 298.829C180.129 298.208 179.976 297.587 179.837 296.967L179.944 297.432ZM179.229 293.719C179.368 294.644 179.537 295.572 179.735 296.502L179.639 296.037C179.45 295.107 179.291 294.181 179.162 293.257L179.229 293.719ZM178.862 290.5C178.921 291.262 179 292.028 179.1 292.796L179.043 292.335C178.951 291.568 178.88 290.804 178.828 290.044L178.862 290.5ZM178.733 287.775C178.738 288.076 178.746 288.377 178.757 288.68L178.743 288.227C178.735 287.925 178.73 287.625 178.728 287.325L178.733 287.775ZM178.741 285.989C178.734 286.284 178.729 286.579 178.728 286.876L178.733 286.427C178.735 286.281 178.737 286.135 178.741 285.989ZM178.773 285.091C178.766 285.239 178.76 285.387 178.755 285.535L178.773 285.091C178.78 284.944 178.787 284.796 178.796 284.649L178.773 285.091ZM178.854 283.768C178.843 283.914 178.832 284.06 178.823 284.207L178.854 283.767C178.866 283.621 178.878 283.475 178.89 283.329L178.854 283.768ZM178.976 282.458C178.96 282.602 178.945 282.747 178.931 282.893L178.976 282.458C178.992 282.313 179.008 282.168 179.026 282.024L178.976 282.458ZM179.668 278.205C179.641 278.327 179.615 278.45 179.59 278.572C179.644 278.31 179.701 278.05 179.761 277.791L179.668 278.205ZM179.959 276.968C179.954 276.99 179.949 277.012 179.943 277.033C179.983 276.875 180.023 276.717 180.064 276.56L179.959 276.968ZM180.77 274.204C180.555 274.845 180.356 275.495 180.174 276.155L180.288 275.751C180.438 275.23 180.599 274.714 180.77 274.204ZM181.199 272.996C181.194 273.008 181.19 273.021 181.185 273.034C181.238 272.893 181.291 272.752 181.345 272.612L181.199 272.996ZM181.9 271.268C181.815 271.462 181.731 271.657 181.65 271.853L181.808 271.478C181.838 271.408 181.869 271.338 181.9 271.268ZM182.839 269.287C182.594 269.762 182.36 270.245 182.136 270.736L182.306 270.369C182.535 269.883 182.775 269.403 183.024 268.933L182.839 269.287ZM185.308 265.247C185.08 265.563 184.858 265.885 184.641 266.212L184.86 265.887C185.007 265.671 185.156 265.458 185.308 265.247L185.308 265.247ZM186.222 264.043C186.07 264.234 185.919 264.427 185.77 264.622C185.919 264.427 186.07 264.234 186.222 264.043ZM188.16 261.858C187.863 262.16 187.572 262.469 187.288 262.785C187.572 262.469 187.863 262.16 188.16 261.858Z" fill="#F1EEE1"/>
<path d="M280.521 129.809C327.823 130.099 358.579 148.562 376.373 164.965L376.795 165.355L376.795 165.356L377.204 165.739C390.102 177.891 399.017 193.31 403.584 202.359C410.864 206.083 417.007 211.696 421.697 218.633L421.992 219.073C428.182 228.331 433.028 238.828 434.349 251.676C435.305 260.978 434.329 270.704 431.543 281.184C443.651 291.385 452.785 302.162 459.286 313.975C467.519 328.937 470.92 344.45 471.812 360.519H471.812C472.183 367.173 469.513 373.623 464.57 378.063C464.23 386.036 462.92 396.18 459.27 406.78C458.3 411.742 455.561 423.234 449.023 436.303L449.022 436.305C437.807 458.717 420.267 475.829 397.994 484.89L397.994 484.89C390.02 488.135 383.574 484.786 380.793 482.86C369.49 489.363 353.633 495.782 333.72 495.923C333.491 495.932 333.262 495.937 333.032 495.937C319.149 495.937 306.31 491.182 296.424 486.145C294.347 485.087 292.348 483.987 290.437 482.875C289.776 483.018 289.137 483.117 288.529 483.181L288.113 483.22L288.048 483.225C285.807 483.398 283.95 483.071 283.908 483.065C283.333 482.978 282.831 482.877 282.474 482.8C281.733 482.64 280.967 482.443 280.227 482.236C278.718 481.812 276.859 481.216 274.717 480.426C270.417 478.842 264.729 476.392 258.149 472.787C249.602 468.105 239.505 461.45 228.985 452.181C227.147 452.325 225.54 452.162 224.286 451.925V451.926C224.27 451.923 224.253 451.919 224.236 451.916C224.228 451.914 224.221 451.913 224.213 451.912V451.912C221.73 451.434 209.069 448.512 196.898 436.747L196.631 436.486C191.063 430.965 187.238 422.753 184.694 416.319C184.509 415.851 184.326 415.379 184.145 414.903C182.145 414.11 180.689 413.12 179.906 412.543C178.273 411.34 177.048 410.05 176.289 409.19C174.648 407.33 173.145 405.134 171.826 402.852C169.125 398.18 166.436 391.834 164.68 384.05C161.662 370.669 161.443 353.227 168.357 332.936C162.027 325.286 157.206 316.039 154.462 305.767V305.766C148.048 281.752 154.283 255.646 171.791 240.091C174.746 211.354 188.479 190.82 204.216 177.43C211.155 171.525 218.663 166.868 225.973 163.459C226.601 161.639 227.542 159.886 228.812 158.284C231.61 154.755 234.956 153.288 236.432 152.734L237.513 152.33C240.285 151.299 243.469 150.154 246.848 149.006C247.461 144.27 249.998 139.928 253.954 137.073C256.233 135.429 259.74 133.759 263.358 132.519C267.387 131.139 272.939 129.805 279.392 129.805L280.521 129.809ZM279.392 147.287C271.235 147.287 264.951 150.69 264.171 151.253C270.861 154.599 276.063 156.462 280.401 158.816C271.402 158.916 253.405 165.029 242.572 169.1C241.413 169.535 251.476 172.726 252.814 173.975C237.506 173.975 190.069 193.612 188.7 249.256C173.251 258.55 165.616 279.833 171.337 301.252C174.405 312.738 180.784 322.274 188.819 328.701C169.064 372.155 188.98 399.251 190.8 398.678C192.277 398.209 194.145 390.412 194.535 388.968C197.869 403.218 203.439 418.767 209.031 424.172C217.996 432.838 227.133 434.673 227.519 434.746C229.225 435.075 223.884 424.634 224.887 423.257C254.675 457.639 285.555 465.883 286.706 465.795C288.016 465.689 283.272 458.332 284.025 457.3C292.903 464.411 312.627 478.237 332.561 478.453L333.032 478.455L333.054 478.444C359.486 478.444 377.316 464.847 385.808 458.282C386.633 460.129 389.844 469.336 391.416 468.695C409.234 461.446 423.666 447.701 433.18 428.922L433.404 428.477C439.755 415.78 441.899 404.849 442.344 402.251C447.758 387.351 447.442 373.066 446.951 366.904C448.145 367.039 451.604 366.059 452.756 365.176L452.861 365.091C453.892 364.188 454.45 362.86 454.372 361.488C452.8 333.167 442.641 310.278 411.191 287.456C421.284 260.488 417.792 244.393 407.715 229.155L407.229 228.43C402.98 222.143 397.271 217.879 390.697 215.963C388.746 211.481 379.64 191.876 364.9 178.158C349.78 164.086 322.678 147.287 279.392 147.287ZM188.913 315.424C188.89 315.395 188.866 315.366 188.843 315.338C188.866 315.366 188.89 315.395 188.913 315.424ZM188.674 315.128C188.656 315.105 188.638 315.083 188.62 315.061L188.587 315.019C188.616 315.056 188.645 315.092 188.674 315.128ZM185.142 309.964C185.217 310.093 185.293 310.222 185.37 310.35L185.6 310.734C185.445 310.479 185.292 310.223 185.142 309.964V309.963L185.142 309.964ZM182.872 305.491L183.059 305.914C182.996 305.773 182.933 305.632 182.871 305.491V305.491L182.872 305.491ZM182.507 304.637C182.452 304.505 182.398 304.372 182.344 304.24L182.507 304.637ZM182.299 304.128C182.257 304.022 182.214 303.915 182.172 303.808C182.214 303.915 182.257 304.022 182.299 304.128ZM182.13 303.701C182.083 303.578 182.035 303.456 181.989 303.333V303.333C182.035 303.456 182.083 303.578 182.13 303.701ZM181.664 302.449L181.824 302.892C181.77 302.745 181.716 302.597 181.663 302.449L181.507 302.003C181.558 302.152 181.611 302.301 181.664 302.449ZM181.062 300.647L181.206 301.102C181.158 300.951 181.109 300.799 181.062 300.647V300.647L181.062 300.647ZM180.529 298.801L180.656 299.266C180.613 299.112 180.57 298.956 180.528 298.801C180.489 298.654 180.451 298.506 180.413 298.36C180.451 298.507 180.49 298.654 180.529 298.801ZM179.969 296.468C179.938 296.324 179.908 296.18 179.879 296.037L179.969 296.468ZM179.854 295.912C179.837 295.828 179.821 295.745 179.804 295.661C179.821 295.745 179.837 295.828 179.854 295.912ZM179.788 295.575C179.772 295.493 179.756 295.411 179.741 295.329C179.756 295.411 179.772 295.493 179.788 295.575ZM179.715 295.19C179.703 295.123 179.69 295.056 179.678 294.989C179.69 295.056 179.703 295.123 179.715 295.19ZM179.654 294.854C179.642 294.787 179.631 294.72 179.619 294.652C179.631 294.72 179.642 294.787 179.654 294.854ZM179.593 294.498C179.581 294.43 179.57 294.363 179.559 294.296C179.57 294.363 179.581 294.43 179.593 294.498ZM179.496 293.898C179.511 293.995 179.526 294.092 179.542 294.189C179.526 294.092 179.511 293.995 179.496 293.898ZM179.491 293.869C179.482 293.806 179.472 293.743 179.462 293.68L179.448 293.583C179.462 293.678 179.477 293.774 179.491 293.869ZM179.269 292.233C179.254 292.11 179.241 291.988 179.228 291.866C179.241 291.988 179.254 292.11 179.269 292.233ZM179.207 291.674C179.195 291.564 179.185 291.454 179.174 291.344C179.185 291.454 179.195 291.564 179.207 291.674ZM179.149 291.092C179.137 290.959 179.126 290.826 179.115 290.693C179.126 290.826 179.137 290.959 179.149 291.092ZM179.101 290.531C179.099 290.506 179.097 290.481 179.095 290.455L179.061 289.998C179.073 290.175 179.087 290.353 179.101 290.531ZM178.967 287.725C178.969 287.875 178.972 288.026 178.976 288.177L178.99 288.631C178.979 288.328 178.971 288.026 178.966 287.725V287.725L178.967 287.725ZM178.966 286.375L178.961 286.824C178.962 286.675 178.963 286.527 178.965 286.379L178.97 286.115L178.966 286.375ZM179.006 285.036L178.988 285.481C178.993 285.332 178.999 285.184 179.006 285.036L179.029 284.592C179.02 284.74 179.013 284.888 179.006 285.036ZM179.088 283.709L179.056 284.15C179.065 284.003 179.076 283.856 179.087 283.71L179.124 283.27C179.111 283.416 179.099 283.563 179.088 283.709ZM179.21 282.397L179.164 282.833C179.178 282.687 179.193 282.542 179.209 282.397L179.259 281.963C179.242 282.107 179.225 282.252 179.21 282.397ZM179.994 277.721C179.935 277.981 179.878 278.242 179.823 278.504C179.849 278.381 179.875 278.259 179.901 278.136L179.994 277.721ZM180.177 276.962C180.182 276.94 180.187 276.919 180.192 276.897L180.298 276.488C180.257 276.646 180.216 276.804 180.177 276.962ZM180.533 275.638C180.553 275.571 180.573 275.504 180.593 275.437C180.573 275.504 180.553 275.571 180.533 275.638ZM180.666 275.19C180.685 275.126 180.705 275.063 180.724 275C180.705 275.063 180.685 275.126 180.666 275.19ZM180.83 274.662C180.841 274.627 180.852 274.592 180.863 274.558C180.852 274.592 180.841 274.627 180.83 274.662ZM181.419 272.955C181.424 272.942 181.428 272.929 181.433 272.917L181.579 272.532C181.525 272.673 181.472 272.814 181.419 272.955ZM163.211 272.801C163.213 272.795 163.215 272.788 163.216 272.781C163.216 272.781 163.217 272.78 163.217 272.779C163.215 272.787 163.213 272.794 163.211 272.801ZM181.884 271.772C181.931 271.659 181.979 271.546 182.027 271.433L181.884 271.772ZM183.073 269.201C182.89 269.558 182.713 269.92 182.541 270.285L182.37 270.653C182.538 270.284 182.712 269.92 182.892 269.56L183.073 269.201ZM184.876 266.119C184.94 266.023 185.004 265.927 185.069 265.832L184.876 266.119ZM185.145 265.722C185.188 265.658 185.232 265.595 185.276 265.532C185.232 265.595 185.188 265.658 185.145 265.722ZM185.349 265.426C185.414 265.335 185.478 265.244 185.543 265.153L185.543 265.153C185.478 265.243 185.414 265.335 185.349 265.426ZM180.261 297.75L180.177 297.401C180.212 297.55 180.249 297.699 180.285 297.848C180.277 297.816 180.269 297.783 180.261 297.75ZM163.205 272.828L163.199 272.852C163.2 272.848 163.205 272.828 163.211 272.801C163.209 272.812 163.206 272.821 163.205 272.828Z" fill="#F1EEE1"/>
<path d="M441.702 391.57L445.352 362.188L450.991 361.241L447.648 339.58C447.648 339.58 446.221 323.287 440.961 321.878C435.7 320.469 423.401 303.241 423.401 303.241L414.412 291.683L405.373 286.698C405.373 286.698 413.465 271.581 413.465 268.278C413.465 264.975 411.122 245.483 411.122 245.483L403.051 231.812C403.051 231.812 395.254 224.966 393.828 222.259C392.401 219.552 383.616 217.318 383.616 217.318L375.626 197.611L358.925 182.132L338.406 165.261L296.254 154.405L284.925 152.032H280.957L285.644 163.59L266.268 165.378L250.77 171.277L260.394 174.206L209.37 201.934C209.37 201.934 202.438 217.034 202.187 218.026C201.936 219.017 196.737 233.867 196.241 235.604C195.745 237.342 193.767 254.42 193.767 254.42C193.767 254.42 192.686 325.883 192.976 327.036C193.265 328.189 188.066 343.924 188.066 345.59C188.066 347.255 185.592 374.732 185.341 376.219C185.09 377.706 186.595 388.763 186.595 388.763C186.595 388.763 187.815 391.815 188.562 393.057C189.309 394.299 195.745 383.404 195.745 383.404C195.745 383.404 198.275 395.998 198.671 397.346C199.066 398.694 218.036 427.964 218.036 427.964L225.219 418.061C225.219 418.061 245.13 442.402 246.942 441.989C248.753 441.577 279.107 460.404 280.584 460.643C282.061 460.883 285.154 454.199 285.154 454.199C285.154 454.199 298.634 464.598 299.509 465.111C300.384 465.623 317.52 473.755 317.52 473.755L364.765 468.647L386.967 456.143L391.18 463.629L423.2 436.509L433.772 424.984C433.772 424.984 438.475 400.231 439.222 399.735C439.969 399.24 441.696 391.564 441.696 391.564L441.702 391.57Z" fill="#FF323F"/>
<path d="M445.016 357.74L443.338 385.362L439.582 411.335L415.625 427.554L387.461 440.159L344.629 442.9L306.98 429.86L269.665 389.261C269.665 389.261 266.032 366.814 266.032 364.669C266.032 362.525 261.741 342.428 263.223 341.008C264.705 339.588 267.681 323.084 268.344 322.254C269.008 321.424 295.69 306.786 295.69 306.786L305.113 304.385C289.779 298.047 282.115 292.249 269.994 278.524C269.994 278.524 268.071 265.167 267.135 263.262C266.199 261.357 268.968 241.205 268.968 241.205L286.322 217.599C286.322 217.599 299.903 211.628 301.117 211.4C302.332 211.171 315.902 209.868 315.902 209.868C315.902 209.868 329.566 214.909 330.759 215.482C331.951 216.056 340.728 225.38 343.832 227.196C346.936 229.012 353.534 232.315 353.534 232.315C353.534 232.315 359.653 220.267 361.464 219.443C363.275 218.618 373.606 220.674 377.367 219.443C381.129 218.212 383.242 219.553 386.262 219.443C389.282 219.333 393.837 220.607 396.144 223.085C398.451 225.564 403.057 230.171 404.544 232.315C406.032 234.459 408.628 235.298 408.333 238.568C408.037 241.838 415.296 264.337 415.296 264.337C415.296 264.337 412.159 277.209 411.83 278.529C411.501 279.849 409.846 287.274 409.685 288.433C409.523 289.591 425.233 302.597 425.233 302.597C425.233 302.597 444.196 329.612 444.692 330.436C445.188 331.26 448.159 344.795 448.159 347.269C448.159 349.742 448.365 353.992 448.036 355.312C447.707 356.632 447.183 361.539 447.183 361.539L445.021 357.746L445.016 357.74Z" fill="#F1EEE1"/>
<path d="M313.434 326.781C312.972 328.179 310.319 328.519 306.908 329.104C305.203 329.438 303.32 329.845 301.392 330.524C300.422 330.847 299.447 331.282 298.444 331.744C297.457 332.262 296.437 332.774 295.429 333.448C291.361 336.038 287.911 339.475 285.186 341.998C282.455 344.533 280.416 346.148 279.09 345.597C277.774 345.067 277.535 342.132 279.028 338.055C279.769 336.016 280.973 333.705 282.734 331.36C283.626 330.196 284.64 329.009 285.838 327.89C287.014 326.753 288.374 325.689 289.878 324.726C291.372 323.745 292.988 322.999 294.587 322.381C295.406 322.108 296.203 321.841 297.011 321.651C297.825 321.484 298.611 321.284 299.402 321.211C302.545 320.805 305.382 321.172 307.577 321.824C309.773 322.531 311.367 323.45 312.331 324.364C313.295 325.288 313.668 326.107 313.44 326.781H313.434Z" fill="#FF323F"/>
<path d="M412.487 403.949C412.487 403.949 427.845 390.23 433.786 363.673C433.786 362.135 393.673 372.178 379.051 370.841C364.428 369.504 329.515 362.119 329.515 362.119L317.377 349.987L299.79 339.092L293.866 335.483C293.866 335.483 297.957 351.842 298.402 353.173C298.848 354.504 304.493 371.526 304.744 372.518C304.995 373.509 314.524 384.516 315.728 385.964C316.932 387.412 330.523 399.972 330.523 399.972L358.66 411.998L405.253 408.506L412.487 403.955V403.949Z" fill="#FF323F"/>
<path d="M317.541 353.78C317.541 353.78 321.007 367.432 323.649 370.84C326.29 374.249 353.702 388.77 385.734 388.77C417.766 388.77 424.537 374.082 424.537 366.819L391.346 370.122C391.346 370.122 376.155 371.113 372.36 371.275C368.565 371.436 349.74 369.459 347.595 368.468C345.449 367.476 317.541 353.78 317.541 353.78Z" fill="#F1EEE1"/>
<path d="M327.25 396.937C327.25 396.937 322.452 387.613 334.835 388.109C347.217 388.604 359.94 393.317 369.508 400.363C371.86 402.095 373.225 399.989 369.508 396.647C368.148 395.411 389.815 393.679 395.143 396.274C400.47 398.87 405.915 406.3 405.915 406.3L395.895 411.163C395.895 411.163 365.529 414.304 365.05 413.642C364.571 412.979 339.683 405.387 333.358 401.883C327.033 398.38 327.25 396.932 327.25 396.932V396.937Z" fill="#F1EEE1"/>
<path d="M424.54 399.661C424.93 400.251 423.102 402.273 419.145 404.93C415.189 407.57 409.087 410.873 400.951 413.63C396.888 415.001 392.313 416.226 387.292 417.089C382.276 417.953 376.798 418.448 371.008 418.298C365.224 418.159 359.133 417.396 352.986 415.825C352.223 415.619 351.437 415.463 350.679 415.212C349.916 414.978 349.147 414.739 348.378 414.499C346.823 414.054 345.324 413.43 343.786 412.873L342.638 412.438L341.507 411.943C340.754 411.608 339.996 411.28 339.238 410.946C338.475 410.628 337.728 410.227 336.982 409.843C336.229 409.453 335.482 409.069 334.725 408.679C328.751 405.437 323.451 401.343 318.92 396.892C314.384 392.436 310.606 387.618 307.485 382.784C301.244 373.086 297.56 363.439 295.259 355.257C292.968 347.047 292.06 340.223 291.826 335.494C291.603 330.754 292.066 328.092 292.773 328.031C293.487 327.969 294.373 330.409 295.783 334.781C297.209 339.143 299.154 345.442 302.18 352.906C305.212 360.348 309.335 368.998 315.371 377.442C318.385 381.653 321.885 385.791 325.936 389.59C329.982 393.383 334.569 396.842 339.701 399.622C340.347 399.956 340.994 400.29 341.64 400.624C342.287 400.959 342.911 401.31 343.591 401.588C344.254 401.889 344.917 402.184 345.58 402.479L346.567 402.925L347.575 403.315C348.918 403.816 350.228 404.395 351.588 404.802C352.262 405.025 352.931 405.247 353.594 405.465C354.257 405.704 354.942 405.849 355.605 406.044C360.966 407.548 366.305 408.417 371.443 408.79C376.587 409.169 381.535 409.035 386.155 408.601C390.78 408.166 395.082 407.442 398.983 406.595C406.802 404.902 413.021 402.78 417.345 401.332C421.681 399.872 424.139 399.065 424.529 399.661H424.54Z" fill="#FF323F"/>
<path d="M332.833 478.219C312.749 478.219 292.793 464.249 283.849 457.091C283.097 458.122 287.839 465.469 286.53 465.575C285.382 465.664 254.515 457.431 224.74 423.092C223.737 424.468 229.075 434.895 227.37 434.566C226.985 434.494 217.852 432.661 208.891 424.006C203.302 418.608 197.734 403.079 194.402 388.848C194.012 390.291 192.145 398.077 190.668 398.545C188.812 399.13 168.121 370.94 189.949 325.979C189.509 321.429 188.539 305.309 188.539 251.787C188.539 194.327 237.128 174.136 252.653 174.136C251.316 172.888 241.257 169.702 242.416 169.268C253.244 165.202 271.233 159.097 280.227 158.997C275.891 156.646 270.692 154.786 264.005 151.444C264.785 150.881 271.066 147.483 279.218 147.483C322.485 147.483 349.574 164.26 364.687 178.313C381.177 193.648 390.612 216.344 390.863 216.99C391.76 219.28 390.629 221.87 388.333 222.761C386.042 223.658 380.129 215.125 379.232 212.831C382.509 220.099 373.442 198.499 358.289 184.535C339.465 167.184 315.129 157.782 285.878 156.535C286.976 158.501 288.235 160.177 289.411 160.924C289.979 161.046 290.537 161.18 291.094 161.319C291.267 161.364 291.417 161.403 291.54 161.431C293.379 161.871 294.839 163.352 295.056 165.235C295.374 167.992 293.245 170.254 290.631 170.254C289.182 170.254 287.839 169.958 286.602 169.446C279.714 168.131 271.829 168.521 263.046 170.616C264.061 171.356 264.757 172.521 264.863 173.857C265.047 176.174 263.425 178.241 261.129 178.614C260.973 178.642 244.774 181.394 228.902 191.887C208.038 205.684 197.461 225.836 197.461 251.782C197.461 315.424 198.854 325.506 198.933 326.013C199.089 326.943 198.949 327.896 198.531 328.742C187.068 351.807 186.7 368.785 188.595 379.268C190.044 375.48 191.432 372.494 191.744 371.832C192.736 369.737 195.193 368.718 197.428 369.592C199.144 370.266 200.231 371.988 200.237 373.831C200.259 399.503 209.17 412.699 217.077 419.355C216.074 414.297 217.239 410.783 217.328 410.526C217.88 408.933 219.29 407.791 220.961 407.569C222.633 407.351 224.288 408.092 225.23 409.49C242.4 434.862 258.048 446.353 268.151 451.521C271.272 453.12 274.069 454.223 276.465 454.992C273.111 448.157 272.604 442.03 272.576 441.657C272.414 439.496 273.83 437.53 275.936 437.001C278.037 436.466 280.221 437.535 281.096 439.518C281.124 439.579 284.579 447.127 292.693 454.524C303.448 464.327 316.962 469.295 332.856 469.295C352.901 469.295 365.829 464.16 373.141 459.849C380.998 455.22 384.236 450.53 384.269 450.48C385.601 448.452 388.315 447.862 390.394 449.188C392.272 450.385 392.885 452.842 391.999 454.886C391.33 456.429 391.235 457.682 391.386 458.651C405.747 451.856 417.065 440.409 425.056 424.568C431.615 411.574 433.348 400.356 433.365 400.244C433.727 397.81 435.99 396.133 438.43 396.496C440.866 396.858 442.543 399.113 442.186 401.548C442.114 402.054 440.286 414.069 433.159 428.306C423.652 447.288 409.14 461.174 391.191 468.471C389.619 469.112 386.409 459.915 385.585 458.072C377.097 464.628 359.276 478.207 332.856 478.207L332.833 478.219Z" fill="#FF323F"/>
<path d="M393.866 241.789C394.318 241.583 394.535 240.965 394.513 239.957C394.513 239.45 394.407 238.865 394.218 238.196C394.062 237.517 393.744 236.793 393.354 235.991C392.535 234.426 391.186 232.593 389.041 231.134C387.987 230.387 386.728 229.803 385.385 229.374C384.031 228.956 382.587 228.761 381.138 228.722C379.695 228.722 378.324 228.895 377.065 229.179C375.811 229.485 374.641 229.858 373.599 230.326C371.492 231.228 369.831 232.354 368.55 233.417C366.003 235.579 365.017 237.556 365.63 238.325C366.248 239.11 368.204 238.676 371.002 237.868C372.4 237.478 374.005 236.977 375.733 236.592C376.597 236.381 377.483 236.236 378.38 236.097C379.277 235.98 380.174 235.918 381.066 235.913C382.833 235.957 384.354 236.253 385.702 236.86C387.062 237.439 388.271 238.286 389.33 239.11C391.414 240.803 392.925 242.229 393.861 241.795L393.866 241.789Z" fill="#FF323F"/>
<path d="M357.618 308.942C369.989 318.255 365.866 324.159 350.975 319.553C347.108 318.356 343.096 317.977 342.198 314.028C341.301 310.079 343.776 306.152 347.727 305.255C351.678 304.358 354.386 306.508 357.618 308.942Z" fill="#FF323F"/>
<path d="M391.314 309.878C382.677 320.388 387.424 324.577 399.183 317.564C402.242 315.743 405.586 314.59 405.536 311.031C405.486 307.471 402.56 304.631 398.999 304.681C395.438 304.731 393.571 307.126 391.314 309.878Z" fill="#FF323F"/>
<path d="M323.261 292.936C332.912 292.797 340.59 282.532 340.41 270.007C340.231 257.482 332.262 247.44 322.611 247.578C312.961 247.716 305.283 257.982 305.462 270.507C305.641 283.032 313.61 293.074 323.261 292.936Z" fill="#FF323F"/>
<path d="M311.477 283.009C316.53 282.937 320.551 277.562 320.457 271.005C320.363 264.447 316.19 259.189 311.137 259.261C306.084 259.334 302.064 264.709 302.158 271.266C302.252 277.824 306.424 283.082 311.477 283.009Z" fill="#F1EEE1"/>
<path d="M377.627 287.497C386.367 287.372 393.321 278.075 393.158 266.731C392.996 255.387 385.779 246.292 377.039 246.417C368.299 246.542 361.346 255.839 361.508 267.183C361.671 278.527 368.888 287.622 377.627 287.497Z" fill="#FF323F"/>
<path d="M363.884 277.355C368.226 277.293 371.681 272.675 371.6 267.04C371.52 261.405 367.934 256.887 363.592 256.949C359.25 257.011 355.795 261.63 355.876 267.265C355.957 272.9 359.542 277.418 363.884 277.355Z" fill="#F1EEE1"/>
<path d="M387.205 353.614C386.42 353.04 386.631 351.425 386.531 349.397C386.487 348.372 386.381 347.219 386.141 345.916C385.907 344.618 385.539 343.175 385.054 341.621C384.079 338.524 382.859 335.623 382.095 333.406C381.711 332.297 381.438 331.361 381.337 330.654C381.287 330.298 381.287 330.002 381.332 329.763C381.349 329.49 381.371 329.295 381.493 329.106C381.622 328.894 381.845 328.688 382.151 328.643C382.491 328.61 382.881 328.682 383.299 328.827C384.135 329.122 385.105 329.735 386.113 330.649C388.114 332.475 390.343 335.506 391.63 339.56C392.265 341.582 392.572 343.671 392.488 345.615C392.41 347.559 391.931 349.336 391.235 350.678C390.544 352.026 389.68 352.928 388.944 353.385C388.197 353.848 387.59 353.887 387.205 353.619V353.614Z" fill="#FF323F"/>
<path d="M219.001 327.089C235.001 322.816 243.66 303.222 238.34 283.325C233.021 263.427 215.739 250.761 199.739 255.035C183.739 259.308 175.081 278.902 180.4 298.799C185.719 318.696 203.001 331.362 219.001 327.089Z" fill="#F1EEE1"/>
<path d="M216.979 313.094C216.639 313.713 215.012 313.635 212.482 312.521C211.222 311.953 209.734 311.128 208.129 309.853C206.552 308.561 204.741 306.862 203.431 304.015C202.796 302.601 202.339 300.84 202.412 298.919C202.467 297.003 203.086 295.037 204.028 293.399C204.975 291.739 206.151 290.369 207.494 289.116C208.876 287.857 210.67 286.615 212.989 285.924C213.568 285.763 214.153 285.607 214.778 285.534C215.391 285.428 216.02 285.412 216.65 285.406C216.968 285.395 217.274 285.439 217.586 285.456C217.898 285.484 218.216 285.506 218.517 285.568L218.974 285.651L219.085 285.673L219.141 285.685H219.13C219.13 285.685 219.096 285.673 219.08 285.668C219.041 285.662 219.085 285.657 219.08 285.657C219.152 285.629 219.169 285.607 219.174 285.573C219.18 285.54 219.163 285.473 219.135 285.451C219.107 285.423 219.096 285.423 219.096 285.423C219.096 285.423 219.096 285.423 219.102 285.423C219.102 285.423 219.102 285.423 219.107 285.423C218.946 285.155 218.784 284.882 218.623 284.615C218.288 283.997 217.854 283.479 217.486 282.905C217.28 282.643 217.073 282.382 216.867 282.12C216.661 281.858 216.466 281.591 216.238 281.368C214.51 279.435 212.587 277.92 210.537 277.012C210.28 276.895 210.024 276.784 209.773 276.667C209.517 276.561 209.249 276.494 208.993 276.399C208.731 276.321 208.48 276.204 208.213 276.149C207.945 276.087 207.683 276.032 207.422 275.97C206.903 275.814 206.357 275.798 205.833 275.714L205.438 275.659L205.064 275.642C204.819 275.642 204.557 275.597 204.329 275.614C202.406 275.603 200.985 276.043 199.759 276.873C198.539 277.708 197.547 279.001 196.811 280.337C196.07 281.674 195.546 283.011 195.117 284.131C194.27 286.397 193.746 287.801 193.027 287.862C192.331 287.924 191.467 286.509 191.116 283.718C190.954 282.32 190.926 280.566 191.339 278.483C191.539 277.441 191.879 276.316 192.409 275.135C192.938 273.965 193.679 272.734 194.716 271.587C195.747 270.439 197.079 269.392 198.606 268.618C200.127 267.838 201.827 267.32 203.532 267.086C203.966 267.003 204.379 266.992 204.814 266.947C205.025 266.93 205.248 266.908 205.46 266.897H206.095C206.942 266.897 207.812 266.858 208.692 266.986C209.132 267.036 209.578 267.086 210.024 267.136C210.47 267.192 210.91 267.309 211.361 267.404C211.807 267.51 212.264 267.593 212.71 267.727C213.15 267.872 213.596 268.022 214.042 268.167C217.625 269.387 220.935 271.665 223.672 274.489C224.028 274.834 224.346 275.207 224.663 275.581C224.981 275.954 225.31 276.327 225.616 276.717C226.19 277.513 226.826 278.293 227.327 279.145L227.723 279.775C227.857 279.992 227.974 280.165 228.169 280.504C228.548 281.256 228.927 282.008 229.306 282.766L229.874 283.902L230.314 285.05C230.604 285.813 230.894 286.581 231.189 287.35C231.373 288.085 231.512 288.798 231.674 289.517L231.908 290.592C231.919 290.636 231.93 290.681 231.936 290.725L231.919 290.831L231.891 291.037L231.83 291.449C231.746 292.001 231.668 292.547 231.59 293.093C231.579 293.237 231.535 293.354 231.49 293.471C231.445 293.594 231.412 293.705 231.356 293.828C231.245 294.073 231.128 294.318 230.988 294.58C230.431 295.599 229.517 296.602 228.486 297.276C227.455 297.95 226.313 298.295 225.566 298.395C225.21 298.457 224.836 298.457 224.441 298.468C223.939 298.434 223.51 298.445 222.83 298.273C222.262 298.223 221.465 297.827 220.74 297.537C220.361 297.326 219.966 297.014 219.581 296.758L219.002 296.357L218.45 296.028C218.071 295.822 217.742 295.571 217.33 295.399L216.761 295.215C216.683 295.181 216.611 295.181 216.538 295.165C216.466 295.159 216.394 295.115 216.327 295.126C216.187 295.126 216.048 295.087 215.909 295.103C215.769 295.087 215.625 295.12 215.474 295.137C214.878 295.215 214.114 295.543 213.323 296.112C212.509 296.708 211.785 297.376 211.295 297.972C210.799 298.579 210.52 299.108 210.364 299.66C210.208 300.211 210.186 300.846 210.319 301.559C210.448 302.272 210.732 303.035 211.083 303.77C211.445 304.506 211.88 305.213 212.32 305.881C213.212 307.213 214.148 308.36 214.911 309.324C216.46 311.251 217.335 312.482 216.984 313.111L216.979 313.094Z" fill="#FF323F"/>
<path d="M197.23 245.642C218.302 240.014 240.82 255.784 247.525 280.864C254.229 305.944 242.582 330.839 221.51 336.467C200.437 342.094 177.919 326.325 171.214 301.245C164.51 276.164 176.157 251.27 197.23 245.642ZM238.342 283.323C233.023 263.425 215.741 250.759 199.741 255.033C183.741 259.306 175.083 278.9 180.402 298.797C185.721 318.694 203.003 331.36 219.003 327.087C235.003 322.814 243.662 303.22 238.342 283.323Z" fill="#FF323F"/>
<path d="M378.143 314.339C378.433 314.472 378.918 314.177 379.336 313.397C379.748 312.623 380.071 311.342 379.977 309.71C379.888 308.084 379.375 306.145 378.389 304.146C377.408 302.146 375.959 300.113 374.164 298.113C372.392 296.114 370.063 294.03 367.226 292.348C364.39 290.649 361.024 289.313 357.329 288.605C353.629 287.954 349.611 287.87 345.582 288.678C344.568 288.845 343.57 289.134 342.562 289.396C341.57 289.725 340.555 290.026 339.58 290.449C337.608 291.245 335.668 292.248 333.846 293.496C332.024 294.743 330.318 296.147 328.842 297.768C327.359 299.378 326.078 301.149 325.03 303.032C324.016 304.937 323.252 306.936 322.74 308.952C322.271 310.986 322.054 313.019 322.082 314.979C322.143 316.884 322.31 318.711 322.734 320.499C323.13 322.276 323.692 323.986 324.45 325.545C325.916 328.693 328.05 331.216 330.235 333.032C332.43 334.859 334.671 336.05 336.671 336.841C338.677 337.638 340.472 338.045 341.943 338.24C344.891 338.618 346.58 338.189 346.663 337.566C346.752 336.925 345.381 336.151 343.085 334.808C341.943 334.134 340.572 333.321 339.129 332.263C337.68 331.216 336.164 329.918 334.81 328.314C333.461 326.715 332.291 324.81 331.567 322.588C331.182 321.485 330.931 320.293 330.775 319.034C330.597 317.792 330.591 316.427 330.647 315.079C330.725 313.782 330.959 312.495 331.322 311.214C331.728 309.944 332.269 308.696 332.96 307.493C333.69 306.301 334.565 305.159 335.579 304.09C336.588 303.015 337.786 302.057 339.056 301.182C340.333 300.302 341.709 299.573 343.124 298.977C343.821 298.654 344.551 298.425 345.264 298.163C345.994 297.963 346.713 297.718 347.449 297.573C350.363 296.871 353.295 296.788 356.042 297.055C358.784 297.378 361.342 298.119 363.621 299.138C365.917 300.163 367.878 301.45 369.651 302.859C371.423 304.257 372.905 305.627 374.031 306.931C375.151 308.234 375.942 309.454 376.472 310.512C377.547 312.64 377.575 314.077 378.166 314.328L378.143 314.339Z" fill="#FF323F"/>
<path d="M420.325 301.26C419.918 299.528 419.21 297.768 418.201 296.136C417.198 294.498 415.9 292.989 414.417 291.697C412.935 290.393 411.269 289.329 409.525 288.438C409.09 288.21 408.65 287.993 408.198 287.803C407.747 287.614 407.312 287.402 406.833 287.229C406.354 287.057 405.869 286.884 405.379 286.711C404.883 286.555 404.381 286.433 403.874 286.294C399.806 285.263 395.32 285.33 391.168 286.372C387 287.402 383.327 289.212 380.129 291.284C376.919 293.379 374.166 295.701 371.731 298.258C371.692 298.297 371.658 298.336 371.619 298.375L377.153 304.608C377.309 304.463 377.459 304.324 377.615 304.179C381.845 300.386 387.401 296.648 393.336 295.172C396.301 294.437 399.176 294.376 401.845 294.938C402.174 295.022 402.509 295.083 402.837 295.172C403.161 295.272 403.489 295.373 403.813 295.473C404.136 295.568 404.47 295.718 404.799 295.835C405.133 295.952 405.451 296.091 405.757 296.236C407.006 296.793 408.148 297.423 409.112 298.152C411.057 299.606 412.367 301.372 413.097 303.343C413.832 305.31 414.005 307.465 413.81 309.487C413.643 311.52 413.119 313.403 412.573 315.052C412.01 316.7 411.375 318.115 410.829 319.285C409.736 321.624 409.045 323.033 409.508 323.496C409.926 323.919 411.492 323.351 413.648 321.401C414.724 320.427 415.933 319.101 417.092 317.341C418.235 315.575 419.388 313.397 420.102 310.696C420.832 308.022 421.144 304.758 420.319 301.277L420.325 301.26Z" fill="#FF323F"/>
<path d="M365.919 446.777C275.709 446.777 255.953 377.976 255.953 351.469C255.953 338.201 260.763 325.83 269.489 316.623C274.956 310.858 281.783 306.619 289.468 304.112C287.428 303.026 285.316 301.762 283.198 300.308C268.291 290.048 260.412 275.037 260.412 256.907C260.412 235.618 272.354 217.182 290.838 209.929C300.68 206.069 311.625 205.724 322.486 208.938C332.795 211.985 342.709 218.045 352.027 226.985C356.886 219.359 363.972 214.919 382.278 214.919C392.287 214.919 401.069 219.748 407.004 228.521C417.447 243.955 421.212 260.11 410.964 287.469C442.399 310.262 452.553 333.121 454.124 361.405C454.202 362.776 453.645 364.101 452.614 365.004C451.583 365.906 447.938 366.953 446.707 366.814C447.426 375.826 447.771 402.234 430.301 422.492C416.403 438.611 394.741 446.782 365.925 446.782L365.919 446.777ZM307.902 215.611C303.188 215.611 298.557 216.469 294.093 218.223C279.047 224.127 269.328 239.306 269.328 256.901C269.328 272.185 275.697 284.317 288.258 292.961C297.827 299.545 307.373 301.528 307.467 301.545C309.713 301.996 311.251 304.079 311.023 306.357C310.794 308.635 308.877 310.368 306.587 310.368C279.203 310.368 264.87 331.038 264.87 351.463C264.87 364.14 269.829 385.284 283.8 403.147C301.817 426.179 329.446 437.859 365.919 437.859C391.989 437.859 411.359 430.746 423.491 416.721C439.546 398.156 438.275 372.534 437.696 366.363C431.956 366.513 398.581 374.177 371.364 374.177C341.712 374.177 321.527 362.547 309.814 352.794C297.063 342.178 291.373 331.545 291.139 331.099C289.991 328.921 290.827 326.225 293.006 325.078C295.185 323.931 297.882 324.766 299.03 326.944C299.075 327.033 304.308 336.697 315.826 346.199C331.168 358.854 349.853 365.265 371.37 365.265C397.572 365.265 409.715 361.612 419.752 360.174C431.337 358.515 430.318 358.565 444.678 356.303C441.418 332.347 431.7 312.857 402.983 292.733C401.289 291.547 400.632 289.346 401.406 287.425C411.643 261.914 408.648 246.868 399.609 233.512C395.324 227.173 389.328 223.825 382.267 223.825C362.534 223.825 357.494 235.301 357.131 236.136C356.529 237.518 355.276 238.509 353.788 238.76C352.305 239.01 350.79 238.509 349.764 237.406C336.507 223.125 321.828 215.611 307.891 215.611H307.902Z" fill="#FF323F"/>
<path d="M336.242 241.345C336.66 240.76 336.476 239.824 335.729 238.582C335.539 238.276 335.328 237.936 335.055 237.607C334.782 237.284 334.47 236.944 334.118 236.594C333.767 236.248 333.394 235.864 332.959 235.507C332.519 235.162 332.04 234.8 331.522 234.438C329.443 233.023 326.623 231.62 323.096 230.985C322.215 230.845 321.307 230.684 320.359 230.667C319.886 230.645 319.407 230.623 318.927 230.617C318.442 230.645 317.952 230.667 317.462 230.695C317.216 230.712 316.966 230.728 316.72 230.745C316.475 230.778 316.225 230.817 315.979 230.856C315.483 230.94 314.982 231.018 314.48 231.102C313.499 231.358 312.48 231.569 311.521 231.948C307.587 233.307 304.427 235.574 302.009 237.869C299.607 240.203 297.896 242.609 296.759 244.765C294.474 249.087 294.324 252.323 295.583 252.98C296.859 253.66 299.183 251.961 302.471 249.41C305.737 246.881 310.05 243.472 314.971 241.762C315.578 241.512 316.197 241.395 316.793 241.189C317.094 241.122 317.4 241.055 317.696 240.994L318.142 240.888L318.587 240.827C318.883 240.782 319.178 240.732 319.473 240.682C319.769 240.66 320.064 240.632 320.354 240.61C320.939 240.526 321.519 240.548 322.093 240.526C324.389 240.493 326.601 240.838 328.562 241.178C329.053 241.272 329.527 241.356 329.989 241.428C330.452 241.517 330.886 241.607 331.299 241.69C331.717 241.768 332.118 241.824 332.497 241.868C332.876 241.918 333.221 241.98 333.55 242.008C334.865 242.125 335.829 241.941 336.242 241.356V241.345Z" fill="#FF323F"/>
</svg>
