<svg width="128" height="128" viewBox="0 0 128 128"  xmlns="http://www.w3.org/2000/svg">
<path fill-rule="evenodd" clip-rule="evenodd" d="M64 128C99.3462 128 128 99.3462 128 64C128 28.6538 99.3462 0 64 0C28.6538 0 0 28.6538 0 64C0 99.3462 28.6538 128 64 128ZM20.4565 40.0307C20.8628 40.0307 21.2626 40.0584 21.6542 40.1119C20.8577 41.8465 20.2485 43.6855 19.8525 45.6022C18.1866 45.6694 16.8568 47.0412 16.8568 48.7235C16.8568 50.2282 17.9206 51.4845 19.3372 51.7811C19.4091 53.7695 19.7067 55.7004 20.2048 57.5484C15.4829 57.4152 11.6959 53.5455 11.6959 48.7913C11.6959 43.953 15.6181 40.0307 20.4565 40.0307ZM107.843 57.5422C108.35 55.6726 108.652 53.7179 108.722 51.7044C109.99 51.3064 110.909 50.1223 110.909 48.7235C110.909 47.1461 109.74 45.8417 108.221 45.6297C107.836 43.7409 107.245 41.927 106.471 40.2137C107.049 40.0937 107.648 40.0307 108.261 40.0307C113.099 40.0307 117.022 43.953 117.022 48.7913C117.022 53.6297 113.099 57.552 108.261 57.552C108.121 57.552 107.981 57.5487 107.843 57.5422ZM34.1138 69.1158C36.3989 70.4675 37.8889 73.0262 37.697 75.6742C37.6427 76.4239 37.615 77.1817 37.615 77.9465C37.615 93.7626 49.4503 106.584 64.0498 106.584C78.6492 106.584 90.4845 93.7626 90.4845 77.9465C90.4845 77.182 90.4568 76.4245 90.4025 75.6751C90.2107 73.0269 91.701 70.4682 93.9863 69.1165C100.205 65.4384 104.381 58.6278 104.381 50.8342C104.381 39.1359 94.9733 29.6525 83.3686 29.6525C78.9829 29.6525 74.9111 31.0069 71.5423 33.3235C67.833 35.8741 60.2683 35.8741 56.5591 33.3235C53.1902 31.0069 49.1184 29.6525 44.7328 29.6525C33.1281 29.6525 23.7206 39.1359 23.7206 50.8342C23.7206 58.6273 27.8955 65.4375 34.1138 69.1158ZM52.0127 52.8101C52.42 54.1269 51.2669 55.2686 49.8885 55.2686H48.6995C47.9778 55.2686 47.4156 54.662 47.1394 53.9952C46.9722 53.5915 46.7271 53.2246 46.4181 52.9156C46.1091 52.6066 45.7423 52.3615 45.3385 52.1943C44.9348 52.027 44.5021 51.941 44.0651 51.941C43.6281 51.941 43.1954 52.027 42.7916 52.1943C42.3879 52.3615 42.0211 52.6066 41.7121 52.9156C41.4031 53.2246 41.1579 53.5915 40.9907 53.9952C40.7145 54.662 40.1524 55.2686 39.4306 55.2686H38.2417C36.8633 55.2686 35.7101 54.1269 36.1175 52.8101C36.1933 52.5649 36.2806 52.323 36.3792 52.085C36.7972 51.0757 37.41 50.1586 38.1825 49.3861C38.955 48.6136 39.8721 48.0008 40.8815 47.5827C41.8908 47.1646 42.9726 46.9495 44.0651 46.9495C45.1576 46.9495 46.2394 47.1646 47.2487 47.5827C48.258 48.0008 49.1751 48.6136 49.9476 49.3861C50.7201 50.1586 51.3329 51.0757 51.751 52.085C51.8496 52.323 51.9368 52.5649 52.0127 52.8101ZM90.1081 55.2686C91.4728 55.2686 92.6142 54.1391 92.2183 52.8331C92.1416 52.58 92.0528 52.3304 91.9522 52.085C91.5382 51.0757 90.9315 50.1586 90.1667 49.3861C89.4018 48.6136 88.4938 48.0008 87.4944 47.5827C86.4951 47.1646 85.424 46.9495 84.3424 46.9495C83.2607 46.9495 82.1896 47.1646 81.1903 47.5827C80.1909 48.0008 79.2829 48.6136 78.518 49.3861C77.7532 50.1586 77.1465 51.0757 76.7325 52.085C76.6319 52.3304 76.5431 52.58 76.4664 52.8331C76.0705 54.1391 77.2119 55.2686 78.5766 55.2686H79.7415C80.4629 55.2686 81.0247 54.6626 81.2984 53.9952C81.464 53.5915 81.7067 53.2246 82.0126 52.9156C82.3186 52.6066 82.6818 52.3615 83.0815 52.1943C83.4812 52.027 83.9097 51.941 84.3424 51.941C84.775 51.941 85.2034 52.027 85.6032 52.1943C86.0029 52.3615 86.3661 52.6066 86.6721 52.9156C86.978 53.2246 87.2207 53.5915 87.3863 53.9952C87.66 54.6626 88.2218 55.2686 88.9432 55.2686H90.1081Z" fill="#1C1C1C"/>
<path d="M70.4146 84.7903C69.5943 85.6107 68.2642 85.6107 67.4439 84.7903C63.3337 80.6802 79.2001 76.0048 70.4146 84.7903Z" fill="#1C1C1C"/>
<path d="M57.6713 84.7903C58.4917 85.6107 59.8217 85.6107 60.6421 84.7903C64.7522 80.6802 48.8858 76.0048 57.6713 84.7903Z" fill="#1C1C1C"/>
</svg>
