<svg width="48" height="48" viewBox="0 0 48 48" fill="none" xmlns="http://www.w3.org/2000/svg">
<circle cx="24" cy="24" r="24" fill="#D31B30"/>
<path d="M30.0078 26.5V37.5C29.5078 37.6667 28.4078 38 28.0078 38C27.6078 38 26.1745 38.3333 25.5078 38.5C25.3411 38.1667 25.1078 37.1 25.5078 35.5C26.0078 33.5 25.0078 34 25.0078 33.5C25.0078 33.1 24.6745 32.3333 24.5078 32C24.1745 31.8333 23.2078 31.3 22.0078 30.5C20.8078 29.7 20.1745 29.1667 20.0078 29H18.5078H17.0078C16.5078 29 16.5078 29 16.0078 28.5C15.5078 28 16.5078 26 16.5078 24.5C16.5078 23 15.0078 26.5 14.5078 27C14.0078 27.5 14.0078 27 13.0078 27.5C12.2078 27.9 11.6745 27.3333 11.5078 27C11.3411 26 11.0078 23.7 11.0078 22.5C11.0078 21 11.0078 19.5 11.5078 18C12.0078 16.5 11.5078 16 11.5078 15C11.5078 14 16.0078 10.5 17.5078 10C19.0078 9.5 19.0078 9 21.5078 9C24.0078 9 27.0078 9.5 27.5078 9.5C28.0078 9.5 30.5078 13 31.0078 13.5C31.4078 13.9 33.8411 18.6667 35.0078 21C35.3411 21.6667 36.0078 23.2 36.0078 24C36.0078 25 35.5078 26 35.0078 26.5C34.6078 26.9 32.8411 26.3333 32.0078 26L30.5078 23C30.3411 23.6667 30.0078 25.3 30.0078 26.5Z" fill="#F3F3F3"/>
<path fill-rule="evenodd" clip-rule="evenodd" d="M29.068 21.894C29.6414 21.5916 30.366 21.6818 30.849 22.1648L33.088 24.4038C33.5145 24.8303 34.1846 24.9064 34.7025 24.6018C35.0528 24.3886 35.1747 23.9316 34.9767 23.5661C32.1437 18.5246 30.4835 15.6307 30.0266 14.9301L29.7372 14.4732C28.3207 12.3256 25.9447 11.0462 23.3706 11.0462L20.6443 11.0462C16.4405 11.0462 13.0288 14.4579 13.0288 18.6617L13.0288 25.5156C13.0288 25.9421 13.3638 26.2772 13.7903 26.2772C14.1634 26.2772 14.4666 26.0207 14.5366 25.671L14.5366 24.7689C14.5366 23.9312 15.222 23.2458 16.0597 23.2458C16.8974 23.2458 17.5828 23.9312 17.5828 24.7689L17.5828 25.3004C17.5929 25.3708 17.5981 25.4426 17.5981 25.5156C17.5981 25.6313 17.5929 25.7457 17.5828 25.8587L17.5828 27.0536C17.5828 27.48 17.9179 27.8151 18.3443 27.8151C18.7708 27.8151 19.1059 27.48 19.1059 27.0536L19.1059 27.045L19.1059 24.7689C19.1059 23.9312 19.7913 23.2458 20.629 23.2458C21.4667 23.2458 22.1521 23.9312 22.1521 24.7689L22.1521 28.5767C22.1521 29.0031 22.4872 29.3382 22.9137 29.3382C23.3376 29.3382 23.6712 29.0072 23.6752 28.5843L23.6752 24.769C23.6752 23.9313 24.3606 23.2459 25.1983 23.2459C26.036 23.2459 26.7214 23.9313 26.7214 24.769L26.7214 25.5199L26.7214 25.5305L26.7214 28.5767L26.7214 28.5934L26.7214 36.1922C26.7214 36.6187 27.0565 36.9538 27.4829 36.9538C27.9094 36.9538 28.2445 36.6187 28.2445 36.1922L28.2445 23.2459C28.2445 22.6599 28.5798 22.1485 29.068 21.894ZM31.2907 26.8661C32.7011 28.003 34.6864 28.16 36.2713 27.2063C38.0533 26.1401 38.6473 23.8859 37.6269 22.0734C34.7177 16.9101 33.0575 14.0315 32.5702 13.2699L32.2655 12.7977C30.3921 9.93431 27.2698 8.18275 23.8732 8.0152L23.6752 8.0152L20.629 8.0152L20.6443 7.99997C14.7651 7.99997 9.98255 12.7825 9.98255 18.6617L9.98255 25.5156C9.98255 27.6175 11.6884 29.3234 13.7903 29.3234C14.259 29.3234 14.708 29.2386 15.1228 29.0835C15.7974 30.1515 16.9885 30.8613 18.3443 30.8613C18.8205 30.8613 19.2764 30.7738 19.6967 30.6139C20.3722 31.6779 21.5609 32.3844 22.9137 32.3844C23.1744 32.3844 23.4291 32.3582 23.6752 32.3082L23.6752 36.1922C23.6752 38.2941 25.3811 40 27.4829 40C29.5848 40 31.2907 38.2941 31.2907 36.1922L31.2907 26.8661Z" fill="#1C1C1C"/>
</svg>
